<svg xmlns="http://www.w3.org/2000/svg" xmlns:xlink="http://www.w3.org/1999/xlink" width="109.042" height="109.042" viewBox="0 0 109.042 109.042">
  <defs>
    <filter id="Rectangle_259" x="0" y="0" width="109.042" height="109.042" filterUnits="userSpaceOnUse">
      <feOffset dy="3" input="SourceAlpha"/>
      <feGaussianBlur stdDeviation="3" result="blur"/>
      <feFlood flood-opacity="0.161"/>
      <feComposite operator="in" in2="blur"/>
      <feComposite in="SourceGraphic"/>
    </filter>
  </defs>
  <g id="frontendSkill" transform="translate(-10203.977 9446)">
    <g transform="matrix(1, 0, 0, 1, 10203.98, -9446)" filter="url(#Rectangle_259)">
      <rect id="Rectangle_259-2" data-name="Rectangle 259" width="91.042" height="91.042" rx="45.521" transform="translate(9 6)" fill="#6c63ff"/>
    </g>
    <path id="Icon_awesome-code" data-name="Icon awesome-code" d="M8.229,15.1l-1.8-.522a.355.355,0,0,1-.242-.44L10.216.258a.355.355,0,0,1,.44-.242l1.8.522a.355.355,0,0,1,.242.44L8.669,14.854a.354.354,0,0,1-.44.242ZM4.865,11.785l1.284-1.369a.354.354,0,0,0-.024-.508L3.452,7.556,6.125,5.2A.352.352,0,0,0,6.149,4.7L4.865,3.327a.354.354,0,0,0-.5-.015L.111,7.3a.352.352,0,0,0,0,.516L4.364,11.8a.352.352,0,0,0,.5-.015Zm9.656.018,4.252-3.987a.352.352,0,0,0,0-.516L14.521,3.31a.357.357,0,0,0-.5.015L12.736,4.694a.354.354,0,0,0,.024.508l2.674,2.355L12.759,9.908a.352.352,0,0,0-.024.508l1.284,1.369A.355.355,0,0,0,14.521,11.8Z" transform="translate(10248.916 -9405.531)" fill="#f6f6f6"/>
    <path id="Icon_awesome-chalkboard" data-name="Icon awesome-chalkboard" d="M7.667,5.111H43.446V33.223h5.111V3.195A3.2,3.2,0,0,0,45.363,0H5.75A3.2,3.2,0,0,0,2.556,3.195V33.223H7.667ZM49.835,35.779h-11.5V30.668H23v5.111H1.278A1.277,1.277,0,0,0,0,37.057v2.556A1.277,1.277,0,0,0,1.278,40.89H49.835a1.277,1.277,0,0,0,1.278-1.278V37.057A1.277,1.277,0,0,0,49.835,35.779Z" transform="translate(10232.212 -9415.43)" fill="#f6f6f6"/>
  </g>
</svg>
