<svg width="1427" height="946" viewBox="0 0 1427 946" fill="none" xmlns="http://www.w3.org/2000/svg">
<circle cx="700" cy="246" r="698.5" stroke="#FF7470" stroke-opacity="0.7" stroke-width="3" stroke-dasharray="14 14"/>
<rect x="1390.74" y="255.823" width="17.3109" height="37.0477" rx="8.65544" transform="rotate(4.02442 1390.74 255.823)" fill="white"/>
<path fill-rule="evenodd" clip-rule="evenodd" d="M1401.81 295.826L1393.27 295.525C1391.57 295.464 1389.94 293.008 1388.63 289.536L1382.6 295.148L1380.55 292.938L1380.85 284.403L1386.11 279.498C1385.69 276.723 1385.49 274.007 1385.57 271.751C1385.87 263.216 1392.65 252.773 1399.05 253C1405.45 253.226 1411.47 264.121 1411.17 272.656C1411.09 274.914 1410.7 277.607 1410.08 280.345L1414.99 285.61L1414.69 294.145L1412.48 296.203L1406.87 290.181C1405.31 293.551 1403.52 295.887 1401.81 295.826ZM1397.69 291.408L1394.24 291.286C1394.12 291.111 1393.99 290.929 1393.88 290.741C1393.18 289.58 1392.45 287.774 1391.8 285.577C1390.48 281.09 1389.7 275.647 1389.83 271.902C1390.08 265.078 1395.58 257.15 1398.9 257.267C1402.22 257.385 1407.15 265.682 1406.91 272.506C1406.77 276.25 1405.61 281.627 1403.98 286.007C1403.17 288.154 1402.32 289.901 1401.54 291.012C1401.41 291.191 1401.28 291.364 1401.14 291.53L1397.69 291.408ZM1398.29 274.338C1399.43 274.378 1400.53 273.966 1401.36 273.194C1402.18 272.422 1402.67 271.353 1402.71 270.221C1402.75 269.089 1402.34 267.988 1401.57 267.159C1400.8 266.33 1399.73 265.842 1398.6 265.802C1397.46 265.762 1396.36 266.174 1395.53 266.946C1394.71 267.718 1394.22 268.787 1394.18 269.919C1394.14 271.051 1394.55 272.152 1395.32 272.981C1396.09 273.81 1397.16 274.298 1398.29 274.338Z" fill="#242936"/>
</svg>
