<svg width="1490" height="1490" viewBox="0 0 1490 1490" fill="none" xmlns="http://www.w3.org/2000/svg">
<path d="M1435.49 723.943C1435.63 728.605 1435.72 733.279 1435.76 737.964L1434.27 737.979C1434.29 740.316 1434.3 742.657 1434.3 745C1434.3 747.343 1434.29 749.683 1434.27 752.021L1435.76 752.035C1435.72 756.72 1435.63 761.394 1435.49 766.057L1433.99 766.013C1433.86 770.666 1433.68 775.307 1433.45 779.937L1434.95 780.01C1434.72 784.695 1434.45 789.369 1434.13 794.03L1432.63 793.928C1432.32 798.582 1431.95 803.225 1431.55 807.854L1433.04 807.985C1432.63 812.641 1432.18 817.284 1431.68 821.914L1430.18 821.753C1429.68 826.4 1429.14 831.034 1428.55 835.653L1430.03 835.843C1429.44 840.473 1428.81 845.088 1428.12 849.688L1426.64 849.468C1425.96 854.093 1425.23 858.703 1424.45 863.298L1425.93 863.547C1425.16 868.157 1424.34 872.752 1423.47 877.331L1422 877.052C1421.13 881.634 1420.22 886.2 1419.27 890.75L1420.74 891.057C1419.78 895.639 1418.77 900.204 1417.73 904.752L1416.26 904.416C1415.22 908.954 1414.13 913.475 1413 917.979L1414.45 918.345C1413.31 922.886 1412.12 927.409 1410.89 931.914L1409.45 931.519C1408.22 936.018 1406.95 940.499 1405.64 944.961L1407.08 945.384C1405.76 949.867 1404.39 954.331 1402.99 958.776L1401.56 958.323C1400.15 962.774 1398.7 967.205 1397.21 971.616L1398.63 972.097C1397.13 976.518 1395.59 980.919 1394.01 985.299L1392.6 984.79C1391.02 989.183 1389.39 993.556 1387.72 997.908L1389.12 998.445C1387.45 1002.81 1385.74 1007.15 1383.98 1011.47L1382.59 1010.9C1380.83 1015.22 1379.04 1019.52 1377.2 1023.79L1378.57 1024.39C1376.73 1028.68 1374.84 1032.95 1372.91 1037.2L1371.54 1036.58C1369.62 1040.82 1367.65 1045.04 1365.64 1049.24L1367 1049.89C1364.98 1054.1 1362.92 1058.3 1360.82 1062.47L1359.48 1061.8C1357.39 1065.96 1355.25 1070.1 1353.08 1074.21L1354.41 1074.91C1352.22 1079.05 1350 1083.15 1347.74 1087.24L1346.43 1086.51C1344.17 1090.59 1341.87 1094.64 1339.53 1098.67L1340.83 1099.42C1338.48 1103.46 1336.1 1107.47 1333.67 1111.46L1332.39 1110.68C1329.97 1114.66 1327.51 1118.62 1325.01 1122.55L1326.28 1123.36C1323.78 1127.3 1321.23 1131.21 1318.65 1135.1L1317.41 1134.27C1314.83 1138.15 1312.21 1142.01 1309.56 1145.84L1310.79 1146.7C1308.13 1150.54 1305.43 1154.35 1302.7 1158.13L1301.48 1157.25C1298.75 1161.03 1295.99 1164.78 1293.19 1168.49L1294.38 1169.4C1291.57 1173.13 1288.72 1176.83 1285.84 1180.5L1284.66 1179.57C1281.78 1183.24 1278.87 1186.87 1275.92 1190.48L1277.08 1191.43C1274.13 1195.04 1271.13 1198.63 1268.1 1202.18L1266.96 1201.21C1263.94 1204.75 1260.88 1208.27 1257.79 1211.75L1258.92 1212.75C1255.82 1216.24 1252.68 1219.71 1249.52 1223.14L1248.41 1222.12C1245.25 1225.54 1242.06 1228.93 1238.83 1232.29L1239.91 1233.33C1236.68 1236.7 1233.41 1240.03 1230.11 1243.33L1229.05 1242.27C1225.75 1245.56 1222.42 1248.82 1219.06 1252.05L1220.1 1253.13C1216.73 1256.37 1213.33 1259.57 1209.9 1262.73L1208.88 1261.63C1205.46 1264.79 1202 1267.91 1198.52 1271L1199.51 1272.13C1196.02 1275.22 1192.49 1278.28 1188.93 1281.31L1187.96 1280.17C1184.41 1283.19 1180.84 1286.17 1177.23 1289.12L1178.18 1290.28C1174.56 1293.23 1170.91 1296.15 1167.24 1299.03L1166.31 1297.85C1162.65 1300.72 1158.95 1303.56 1155.23 1306.36L1156.13 1307.56C1152.4 1310.36 1148.64 1313.13 1144.85 1315.86L1143.97 1314.64C1140.19 1317.36 1136.38 1320.05 1132.55 1322.7L1133.4 1323.93C1129.56 1326.58 1125.69 1329.19 1121.79 1331.77L1120.97 1330.52C1117.08 1333.08 1113.17 1335.61 1109.23 1338.1L1110.03 1339.37C1106.08 1341.86 1102.11 1344.32 1098.11 1346.73L1097.34 1345.45C1093.35 1347.86 1089.34 1350.22 1085.3 1352.55L1086.05 1353.85C1082.01 1356.18 1077.94 1358.47 1073.84 1360.72L1073.12 1359.41C1069.04 1361.65 1064.94 1363.85 1060.81 1366.01L1061.51 1367.34C1057.37 1369.5 1053.21 1371.63 1049.02 1373.71L1048.36 1372.37C1044.19 1374.44 1040 1376.47 1035.78 1378.46L1036.43 1379.82C1032.21 1381.81 1027.96 1383.76 1023.7 1385.67L1023.09 1384.3C1018.84 1386.2 1014.56 1388.06 1010.27 1389.88L1010.85 1391.26C1006.56 1393.07 1002.24 1394.85 997.904 1396.58L997.349 1395.18C993.021 1396.91 988.673 1398.59 984.303 1400.23L984.83 1401.64C980.467 1403.27 976.083 1404.87 971.678 1406.42L971.18 1405C966.789 1406.55 962.378 1408.05 957.947 1409.51L958.416 1410.93C953.984 1412.39 949.533 1413.8 945.063 1415.17L944.624 1413.74C940.177 1415.1 935.712 1416.42 931.229 1417.69L931.638 1419.13C927.145 1420.41 922.633 1421.64 918.103 1422.82L917.723 1421.37C913.23 1422.55 908.719 1423.68 904.191 1424.76L904.54 1426.22C900.003 1427.31 895.449 1428.35 890.877 1429.35L890.558 1427.88C886.014 1428.87 881.452 1429.82 876.875 1430.71L877.164 1432.19C872.593 1433.08 868.006 1433.94 863.403 1434.74L863.144 1433.27C858.553 1434.07 853.946 1434.83 849.324 1435.54L849.552 1437.02C844.957 1437.73 840.346 1438.39 835.721 1439.01L835.524 1437.52C830.909 1438.13 826.28 1438.7 821.637 1439.22L821.804 1440.71C817.175 1441.23 812.532 1441.7 807.876 1442.13L807.739 1440.64C803.112 1441.06 798.473 1441.44 793.82 1441.77L793.926 1443.26C789.266 1443.6 784.592 1443.88 779.906 1444.12L779.831 1442.62C775.202 1442.85 770.562 1443.04 765.91 1443.18L765.956 1444.68C761.294 1444.82 756.62 1444.92 751.935 1444.96L751.92 1443.46C749.583 1443.49 747.242 1443.5 744.9 1443.5C742.557 1443.5 740.217 1443.49 737.88 1443.46L737.864 1444.96C733.18 1444.92 728.506 1444.82 723.844 1444.68L723.889 1443.18C719.237 1443.04 714.597 1442.85 709.969 1442.62L709.893 1444.12C705.207 1443.88 700.534 1443.6 695.873 1443.26L695.979 1441.77C691.327 1441.44 686.687 1441.06 682.06 1440.64L681.924 1442.13C677.267 1441.7 672.624 1441.23 667.995 1440.71L668.163 1439.22C663.52 1438.7 658.891 1438.13 654.276 1437.52L654.078 1439.01C649.453 1438.39 644.843 1437.73 640.247 1437.02L640.475 1435.54C635.854 1434.83 631.247 1434.07 626.655 1433.27L626.397 1434.74C621.794 1433.94 617.206 1433.08 612.635 1432.19L612.924 1430.71C608.347 1429.82 603.786 1428.87 599.241 1427.88L598.922 1429.35C594.351 1428.35 589.796 1427.31 585.259 1426.22L585.609 1424.76C581.081 1423.68 576.57 1422.55 572.076 1421.37L571.697 1422.82C567.167 1421.64 562.655 1420.41 558.161 1419.13L558.571 1417.69C554.087 1416.42 549.622 1415.1 545.176 1413.74L544.737 1415.17C540.266 1413.8 535.815 1412.39 531.384 1410.93L531.852 1409.51C527.421 1408.05 523.01 1406.55 518.619 1405L518.121 1406.42C513.717 1404.87 509.333 1403.28 504.969 1401.64L505.496 1400.23C501.127 1398.59 496.778 1396.91 492.451 1395.18L491.895 1396.58C487.558 1394.85 483.243 1393.07 478.949 1391.26L479.534 1389.88C475.237 1388.06 470.963 1386.2 466.712 1384.3L466.099 1385.67C461.835 1383.76 457.593 1381.81 453.374 1379.82L454.015 1378.46C449.8 1376.47 445.61 1374.44 441.442 1372.37L440.774 1373.71C436.59 1371.63 432.43 1369.5 428.293 1367.34L428.989 1366.01C424.862 1363.85 420.759 1361.65 416.681 1359.41L415.959 1360.72C411.863 1358.47 407.792 1356.18 403.746 1353.85L404.495 1352.55C400.458 1350.22 396.446 1347.86 392.461 1345.45L391.685 1346.73C387.687 1344.32 383.715 1341.86 379.769 1339.37L380.57 1338.1C376.631 1335.61 372.717 1333.08 368.831 1330.52L368.004 1331.77C364.109 1329.19 360.24 1326.58 356.4 1323.93L357.252 1322.7C353.416 1320.05 349.608 1317.36 345.828 1314.64L344.951 1315.86C341.162 1313.13 337.403 1310.36 333.672 1307.56L334.573 1306.36C330.848 1303.56 327.152 1300.72 323.485 1297.85L322.56 1299.03C318.884 1296.15 315.238 1293.23 311.623 1290.28L312.571 1289.12C308.963 1286.17 305.384 1283.19 301.836 1280.17L300.864 1281.31C297.308 1278.28 293.782 1275.22 290.288 1272.13L291.283 1271C287.796 1267.91 284.339 1264.79 280.915 1261.63L279.898 1262.73C276.467 1259.57 273.067 1256.37 269.699 1253.13L270.738 1252.05C267.378 1248.82 264.05 1245.56 260.754 1242.27L259.693 1243.33C256.392 1240.03 253.123 1236.7 249.888 1233.33L250.969 1232.29C247.741 1228.93 244.546 1225.54 241.385 1222.12L240.283 1223.14C237.116 1219.71 233.982 1216.24 230.883 1212.75L232.005 1211.75C228.915 1208.27 225.858 1204.75 222.837 1201.21L221.695 1202.18C218.667 1198.63 215.673 1195.04 212.715 1191.43L213.876 1190.48C210.928 1186.87 208.015 1183.24 205.138 1179.57L203.958 1180.5C201.075 1176.83 198.227 1173.13 195.416 1169.4L196.614 1168.49C193.811 1164.78 191.045 1161.03 188.315 1157.25L187.099 1158.13C184.366 1154.35 181.669 1150.54 179.009 1146.7L180.242 1145.84C177.589 1142.01 174.973 1138.15 172.394 1134.27L171.144 1135.1C168.565 1131.21 166.024 1127.3 163.521 1123.36L164.787 1122.55C162.289 1118.62 159.828 1114.66 157.407 1110.68L156.125 1111.46C153.703 1107.47 151.319 1103.46 148.974 1099.42L150.271 1098.67C147.933 1094.64 145.634 1090.59 143.374 1086.51L142.062 1087.24C139.8 1083.15 137.576 1079.05 135.393 1074.91L136.719 1074.21C134.545 1070.1 132.411 1065.96 130.317 1061.8L128.977 1062.47C126.878 1058.3 124.819 1054.1 122.801 1049.89L124.154 1049.24C122.148 1045.04 120.181 1040.82 118.255 1036.58L116.889 1037.2C114.96 1032.95 113.072 1028.68 111.225 1024.39L112.603 1023.79C110.764 1019.52 108.966 1015.22 107.209 1010.9L105.82 1011.47C104.064 1007.15 102.349 1002.81 100.676 998.445L102.077 997.908C100.408 993.556 98.7807 989.184 97.1959 984.79L95.7849 985.299C94.2048 980.919 92.6666 976.518 91.171 972.098L92.5918 971.617C91.0994 967.206 89.6492 962.774 88.242 958.324L86.8118 958.776C85.4064 954.331 84.0437 949.867 82.7241 945.385L84.163 944.961C82.8496 940.499 81.579 936.018 80.3517 931.52L78.9046 931.914C77.6756 927.409 76.49 922.886 75.3482 918.346L76.8029 917.98C75.6704 913.476 74.5811 908.954 73.5354 904.416L72.0737 904.753C71.0258 900.205 70.0217 895.639 69.0618 891.058L70.53 890.75C69.5768 886.201 68.6674 881.635 67.8021 877.053L66.3282 877.331C65.4635 872.752 64.6429 868.158 63.8667 863.548L65.3459 863.298C64.5723 858.704 63.843 854.094 63.1585 849.469L61.6746 849.688C60.9937 845.088 60.357 840.473 59.7649 835.844L61.2528 835.654C60.662 831.034 60.1157 826.401 59.6144 821.753L58.123 821.914C57.6236 817.285 57.1688 812.642 56.759 807.986L58.2532 807.854C57.8457 803.225 57.4829 798.583 57.165 793.928L55.6685 794.03C55.3502 789.369 55.0769 784.696 54.8491 780.01L56.3473 779.937C56.1223 775.308 55.9417 770.667 55.806 766.014L54.3066 766.057C54.1707 761.395 54.0797 756.721 54.0342 752.036L55.5341 752.021C55.5114 749.684 55.5 747.343 55.5 745C55.5 742.657 55.5114 740.317 55.5341 737.979L54.0342 737.965C54.0797 733.28 54.1707 728.606 54.3066 723.943L55.806 723.987C55.9417 719.334 56.1222 714.693 56.3473 710.063L54.8491 709.99C55.0769 705.305 55.3501 700.631 55.6684 695.97L57.1649 696.072C57.4828 691.418 57.8457 686.775 58.2532 682.146L56.7589 682.015C57.1688 677.359 57.6236 672.716 58.123 668.086L59.6143 668.247C60.1156 663.6 60.6619 658.966 61.2527 654.347L59.7649 654.157C60.3569 649.527 60.9937 644.912 61.6746 640.312L63.1584 640.532C63.8429 635.907 64.5722 631.297 65.3458 626.702L63.8666 626.453C64.6428 621.843 65.4634 617.248 66.3281 612.669L67.802 612.948C68.6673 608.366 69.5767 603.8 70.5299 599.25L69.0618 598.943C70.0216 594.361 71.0258 589.796 72.0736 585.248L73.5353 585.584C74.581 581.046 75.6703 576.525 76.8028 572.021L75.3481 571.655C76.4899 567.114 77.6755 562.591 78.9045 558.086L80.3516 558.481C81.5789 553.982 82.8495 549.501 84.1629 545.039L82.724 544.616C84.0436 540.133 85.4063 535.669 86.8117 531.224L88.2419 531.677C89.6491 527.226 91.0992 522.795 92.5917 518.384L91.1708 517.903C92.6665 513.482 94.2047 509.081 95.7848 504.701L97.1958 505.21C98.7806 500.817 100.408 496.444 102.077 492.092L100.676 491.555C102.349 487.194 104.063 482.853 105.819 478.535L107.209 479.1C108.966 474.78 110.764 470.481 112.603 466.205L111.225 465.613C113.072 461.318 114.96 457.047 116.889 452.798L118.255 453.418C120.181 449.176 122.147 444.957 124.154 440.762L122.801 440.115C124.819 435.895 126.878 431.7 128.977 427.528L130.317 428.202C132.411 424.04 134.545 419.901 136.719 415.788L135.393 415.087C137.576 410.954 139.8 406.847 142.062 402.765L143.374 403.492C145.634 399.414 147.933 395.362 150.271 391.335L148.974 390.582C151.319 386.543 153.703 382.531 156.125 378.544L157.407 379.323C159.828 375.338 162.289 371.378 164.787 367.446L163.521 366.642C166.024 362.701 168.565 358.788 171.144 354.902L172.394 355.731C174.973 351.846 177.589 347.988 180.242 344.158L179.009 343.304C181.669 339.465 184.366 335.654 187.099 331.872L188.315 332.751C191.045 328.973 193.811 325.225 196.614 321.505L195.416 320.603C198.227 316.872 201.075 313.171 203.958 309.499L205.138 310.426C208.015 306.762 210.928 303.128 213.876 299.524L212.715 298.575C215.673 294.959 218.667 291.373 221.695 287.819L222.837 288.792C225.858 285.245 228.915 281.73 232.005 278.246L230.883 277.251C233.982 273.757 237.116 270.295 240.283 266.865L241.385 267.882C244.546 264.459 247.741 261.068 250.969 257.709L249.888 256.67C253.123 253.304 256.392 249.97 259.694 246.67L260.754 247.731C264.05 244.437 267.378 241.176 270.738 237.949L269.699 236.867C273.067 233.633 276.467 230.433 279.898 227.268L280.915 228.37C284.34 225.211 287.796 222.087 291.283 218.997L290.288 217.874C293.783 214.778 297.308 211.717 300.865 208.691L301.837 209.833C305.385 206.815 308.963 203.832 312.572 200.885L311.623 199.723C315.239 196.77 318.884 193.853 322.56 190.973L323.485 192.153C327.152 189.28 330.848 186.443 334.573 183.643L333.672 182.444C337.403 179.64 341.163 176.873 344.951 174.143L345.828 175.36C349.608 172.637 353.416 169.951 357.252 167.303L356.4 166.069C360.24 163.418 364.109 160.806 368.004 158.232L368.831 159.483C372.717 156.916 376.631 154.387 380.57 151.897L379.769 150.629C383.715 148.136 387.687 145.681 391.685 143.267L392.461 144.551C396.446 142.144 400.458 139.777 404.495 137.45L403.746 136.15C407.791 133.818 411.863 131.527 415.959 129.276L416.681 130.59C420.759 128.349 424.862 126.149 428.989 123.989L428.293 122.66C432.429 120.496 436.59 118.372 440.774 116.291L441.442 117.634C445.609 115.56 449.8 113.529 454.014 111.539L453.374 110.182C457.593 108.19 461.835 106.24 466.099 104.332L466.712 105.701C470.963 103.799 475.237 101.94 479.533 100.123L478.949 98.7413C483.243 96.9255 487.558 95.1523 491.895 93.4223L492.451 94.8155C496.778 93.0893 501.127 91.4062 505.496 89.7667L504.969 88.3623C509.332 86.7251 513.717 85.1312 518.121 83.5813L518.619 84.9962C523.01 83.4509 527.421 81.9494 531.852 80.492L531.384 79.0671C535.815 77.6096 540.266 76.1962 544.736 74.8275L545.176 76.2618C549.622 74.9005 554.087 73.5834 558.57 72.3111L558.161 70.8681C562.654 69.593 567.166 68.3628 571.696 67.1779L572.076 68.6291C576.569 67.4539 581.08 66.3235 585.608 65.2383L585.259 63.7796C589.796 62.6922 594.35 61.6502 598.922 60.654L599.241 62.1196C603.786 61.1293 608.347 60.1843 612.924 59.2852L612.635 57.8133C617.206 56.9154 621.793 56.0632 626.396 55.2571L626.655 56.7346C631.246 55.9306 635.853 55.1725 640.475 54.461L640.247 52.9784C644.842 52.2709 649.453 51.6093 654.078 50.994L654.275 52.4809C658.89 51.867 663.519 51.2993 668.162 50.7784L667.995 49.2877C672.624 48.7683 677.267 48.2952 681.923 47.8689L682.06 49.3627C686.687 48.9391 691.326 48.5619 695.979 48.2314L695.873 46.7352C700.533 46.4041 705.207 46.1199 709.893 45.883L709.968 47.3811C714.597 47.147 719.237 46.9593 723.889 46.8182L723.844 45.3189C728.506 45.1775 733.179 45.0829 737.864 45.0355L737.879 46.5355C740.216 46.5118 742.557 46.5 744.9 46.5C747.242 46.5 749.582 46.5118 751.919 46.5355L751.935 45.0355C756.619 45.0829 761.293 45.1775 765.955 45.3189L765.91 46.8182C770.562 46.9593 775.202 47.147 779.83 47.381L779.906 45.883C784.592 46.1199 789.265 46.4041 793.926 46.7351L793.82 48.2314C798.472 48.5619 803.112 48.9391 807.739 49.3626L807.875 47.8689C812.532 48.2952 817.175 48.7683 821.804 49.2877L821.637 50.7783C826.279 51.2993 830.909 51.867 835.523 52.4809L835.721 50.994C840.346 51.6093 844.956 52.2709 849.552 52.9784L849.324 54.4609C853.946 55.1725 858.552 55.9305 863.144 56.7345L863.402 55.257C868.005 56.0631 872.593 56.9154 877.164 57.8133L876.875 59.2852C881.452 60.1842 886.013 61.1292 890.558 62.1196L890.877 60.654C895.448 61.6502 900.003 62.6922 904.54 63.7795L904.19 65.2382C908.719 66.3234 913.23 67.4538 917.723 68.629L918.102 67.1779C922.632 68.3627 927.144 69.5929 931.638 70.868L931.228 72.311C935.712 73.5833 940.177 74.9004 944.623 76.2617L945.062 74.8274C949.533 76.1961 953.984 77.6095 958.415 79.067L957.947 80.4919C962.378 81.9493 966.789 83.4508 971.18 84.9961L971.678 83.5812C976.082 85.1311 980.466 86.725 984.83 88.3622L984.303 89.7666C988.672 91.4061 993.021 93.0893 997.348 94.8155L997.904 93.4222C1002.24 95.1522 1006.56 96.9254 1010.85 98.7412L1010.27 100.123C1014.56 101.94 1018.84 103.799 1023.09 105.701L1023.7 104.332C1027.96 106.24 1032.21 108.19 1036.43 110.182L1035.78 111.539C1040 113.529 1044.19 115.56 1048.36 117.634L1049.02 116.291C1053.21 118.372 1057.37 120.496 1061.51 122.66L1060.81 123.989C1064.94 126.149 1069.04 128.349 1073.12 130.59L1073.84 129.276C1077.94 131.527 1082.01 133.818 1086.05 136.15L1085.3 137.45C1089.34 139.777 1093.35 142.144 1097.34 144.551L1098.11 143.267C1102.11 145.681 1106.08 148.136 1110.03 150.629L1109.23 151.897C1113.17 154.387 1117.08 156.916 1120.97 159.483L1121.79 158.232C1125.69 160.806 1129.56 163.418 1133.4 166.069L1132.55 167.303C1136.38 169.951 1140.19 172.637 1143.97 175.36L1144.85 174.143C1148.64 176.873 1152.4 179.64 1156.13 182.444L1155.23 183.643C1158.95 186.443 1162.65 189.28 1166.31 192.153L1167.24 190.973C1170.91 193.853 1174.56 196.77 1178.18 199.723L1177.23 200.885C1180.84 203.832 1184.41 206.815 1187.96 209.834L1188.93 208.691C1192.49 211.717 1196.02 214.778 1199.51 217.874L1198.52 218.997C1202 222.087 1205.46 225.211 1208.88 228.371L1209.9 227.268C1213.33 230.433 1216.73 233.633 1220.1 236.867L1219.06 237.949C1222.42 241.176 1225.75 244.437 1229.05 247.731L1230.11 246.67C1233.41 249.97 1236.68 253.304 1239.91 256.67L1238.83 257.71C1242.06 261.068 1245.25 264.459 1248.41 267.883L1249.52 266.865C1252.68 270.295 1255.82 273.757 1258.92 277.251L1257.79 278.246C1260.88 281.73 1263.94 285.245 1266.96 288.792L1268.1 287.819C1271.13 291.373 1274.13 294.959 1277.08 298.575L1275.92 299.524C1278.87 303.128 1281.78 306.762 1284.66 310.426L1285.84 309.5C1288.72 313.171 1291.57 316.872 1294.38 320.603L1293.19 321.506C1295.99 325.225 1298.75 328.973 1301.48 332.751L1302.7 331.872C1305.43 335.654 1308.13 339.465 1310.79 343.304L1309.56 344.158C1312.21 347.988 1314.83 351.846 1317.41 355.731L1318.65 354.902C1321.23 358.788 1323.78 362.701 1326.28 366.642L1325.01 367.446C1327.51 371.378 1329.97 375.338 1332.39 379.323L1333.67 378.544C1336.1 382.531 1338.48 386.543 1340.83 390.582L1339.53 391.335C1341.87 395.361 1344.17 399.414 1346.43 403.492L1347.74 402.764C1350 406.847 1352.22 410.954 1354.41 415.087L1353.08 415.787C1355.25 419.901 1357.39 424.04 1359.48 428.202L1360.82 427.528C1362.92 431.699 1364.98 435.895 1367 440.114L1365.64 440.762C1367.65 444.957 1369.62 449.176 1371.54 453.418L1372.91 452.797C1374.84 457.046 1376.73 461.318 1378.57 465.613L1377.2 466.205C1379.04 470.481 1380.83 474.779 1382.59 479.099L1383.98 478.534C1385.74 482.853 1387.45 487.193 1389.12 491.555L1387.72 492.092C1389.39 496.444 1391.02 500.816 1392.6 505.21L1394.01 504.701C1395.59 509.081 1397.13 513.482 1398.63 517.902L1397.21 518.383C1398.7 522.794 1400.15 527.226 1401.56 531.676L1402.99 531.224C1404.39 535.669 1405.76 540.133 1407.07 544.615L1405.64 545.039C1406.95 549.501 1408.22 553.982 1409.45 558.48L1410.89 558.086C1412.12 562.591 1413.31 567.114 1414.45 571.654L1413 572.02C1414.13 576.524 1415.22 581.046 1416.26 585.584L1417.73 585.247C1418.77 589.795 1419.78 594.361 1420.74 598.942L1419.27 599.25C1420.22 603.799 1421.13 608.365 1422 612.947L1423.47 612.669C1424.34 617.248 1425.16 621.842 1425.93 626.452L1424.45 626.702C1425.23 631.296 1425.96 635.906 1426.64 640.531L1428.12 640.312C1428.81 644.912 1429.44 649.527 1430.03 654.156L1428.55 654.346C1429.14 658.966 1429.68 663.599 1430.18 668.247L1431.68 668.086C1432.18 672.715 1432.63 677.358 1433.04 682.014L1431.55 682.146C1431.95 686.775 1432.32 691.417 1432.63 696.072L1434.13 695.97C1434.45 700.631 1434.72 705.304 1434.95 709.99L1433.45 710.063C1433.68 714.692 1433.86 719.333 1433.99 723.986L1435.49 723.943Z" stroke="#FF7470" stroke-opacity="0.7" stroke-width="3" stroke-dasharray="14 14"/>
<rect width="17.0869" height="37.0453" rx="8.54347" transform="matrix(0.997949 0.0640086 -0.06218 0.998065 1426.83 727.393)" fill="white"/>
<g clip-path="url(#clip0_727_128)">
<path fill-rule="evenodd" clip-rule="evenodd" d="M1438.04 767.317L1429.61 767.075C1427.92 767.027 1426.3 764.581 1424.98 761.12L1419.08 766.773L1417.03 764.578L1417.27 756.041L1422.43 751.099C1421.99 748.327 1421.77 745.612 1421.84 743.356C1422.07 734.819 1428.69 724.329 1435.01 724.511C1441.33 724.692 1447.35 735.545 1447.11 744.082C1447.05 746.34 1446.68 749.035 1446.09 751.778L1450.97 757.008L1450.73 765.545L1448.57 767.619L1442.99 761.636C1441.48 765.017 1439.72 767.365 1438.04 767.317ZM1433.94 762.927L1430.54 762.83C1430.41 762.655 1430.29 762.474 1430.18 762.288C1429.48 761.131 1428.74 759.331 1428.09 757.138C1426.75 752.661 1425.94 747.223 1426.05 743.477C1426.24 736.652 1431.61 728.685 1434.89 728.779C1438.17 728.873 1443.09 737.135 1442.9 743.961C1442.8 747.706 1441.69 753.091 1440.11 757.483C1439.33 759.635 1438.5 761.388 1437.73 762.504C1437.61 762.684 1437.48 762.858 1437.34 763.025L1433.94 762.927ZM1434.42 745.853C1435.53 745.885 1436.62 745.466 1437.43 744.689C1438.24 743.911 1438.72 742.838 1438.75 741.706C1438.78 740.574 1438.36 739.475 1437.6 738.652C1436.83 737.829 1435.77 737.348 1434.65 737.316C1433.54 737.284 1432.45 737.703 1431.64 738.481C1430.83 739.259 1430.35 740.332 1430.32 741.464C1430.29 742.596 1430.7 743.694 1431.47 744.518C1432.24 745.341 1433.3 745.821 1434.42 745.853Z" fill="#242936"/>
</g>
<defs>
<clipPath id="clip0_727_128">
<rect width="34.5941" height="44.0393" fill="white" transform="matrix(0.999524 0.0286829 -0.0277629 0.999678 1418.06 723.477)"/>
</clipPath>
</defs>
</svg>
