<svg width="31" height="51" viewBox="0 0 31 51" fill="none" xmlns="http://www.w3.org/2000/svg">
<g clip-path="url(#clip0_629_113)">
<path d="M-0.4375 15.9375C-0.4375 11.7106 1.24162 7.65685 4.23049 4.66799C7.21935 1.67912 11.2731 0 15.5 0C19.7269 0 23.7807 1.67912 26.7695 4.66799C29.7584 7.65685 31.4375 11.7106 31.4375 15.9375V35.0625C31.4375 39.2894 29.7584 43.3432 26.7695 46.332C23.7807 49.3209 19.7269 51 15.5 51C11.2731 51 7.21935 49.3209 4.23049 46.332C1.24162 43.3432 -0.4375 39.2894 -0.4375 35.0625V15.9375ZM17.0938 11.1562C17.0938 10.7336 16.9258 10.3282 16.627 10.0293C16.3281 9.73041 15.9227 9.5625 15.5 9.5625C15.0773 9.5625 14.6719 9.73041 14.373 10.0293C14.0742 10.3282 13.9062 10.7336 13.9062 11.1562V17.5312C13.9062 17.9539 14.0742 18.3593 14.373 18.6582C14.6719 18.9571 15.0773 19.125 15.5 19.125C15.9227 19.125 16.3281 18.9571 16.627 18.6582C16.9258 18.3593 17.0938 17.9539 17.0938 17.5312V11.1562Z" fill="#ED7171"/>
</g>
<defs>
<clipPath id="clip0_629_113">
<rect width="31" height="51" fill="white"/>
</clipPath>
</defs>
</svg>
