<svg width="32" height="46" viewBox="0 0 32 46" fill="none" xmlns="http://www.w3.org/2000/svg">
<path fill-rule="evenodd" clip-rule="evenodd" d="M31.9999 8.16987C31.999 7.09521 31.7604 6.03137 31.298 5.03982C30.8355 4.04827 30.1584 3.14867 29.3057 2.39302C27.5742 0.858454 25.2366 -0.00154931 22.8013 2.09537e-06H2.3329C1.04498 2.09537e-06 0.000803955 0.927532 0.000803955 2.07146V8.36311C0.000803955 9.507 1.04495 10.4343 2.3329 10.4343H20.2477C20.2477 10.4343 20.284 20.3784 20.3007 24.9588C20.3052 26.2108 19.173 27.2321 17.7635 27.2476C13.7831 27.2915 6.146 27.3756 2.32655 27.4177C1.05385 27.4318 0.0288631 28.3495 0.0233374 29.4799C0.0163764 30.9101 0.00708317 32.817 1.45683e-05 34.2568C-0.00107027 34.53 0.0584425 34.8006 0.175095 35.0531C0.291748 35.3055 0.463215 35.5346 0.679533 35.7271C1.11884 36.1181 1.71301 36.3374 2.33219 36.337H24.4181C28.5436 36.337 31.8929 33.3747 31.9101 29.7106C31.946 22.0361 32 10.4346 32 10.4346L31.9999 8.16987Z" fill="white"/>
<path fill-rule="evenodd" clip-rule="evenodd" d="M30.17 45.7143C31.1807 45.7143 32 44.9308 32 43.9642V41.6037C32 40.6371 31.1807 39.8535 30.17 39.8535H1.83003C0.819279 39.8536 0 40.6371 0 41.6037V43.9642C0 44.9308 0.819315 45.7143 1.83003 45.7143H30.17Z" fill="white"/>
<path fill-rule="evenodd" clip-rule="evenodd" d="M32 7.86241C32 3.52014 27.984 5.56195e-07 23.03 5.56195e-07H2.33217C1.71474 -0.00039927 1.12209 0.21478 0.68309 0.59875C0.466891 0.787822 0.295206 1.01292 0.177959 1.26102C0.0607119 1.50912 0.000226967 1.77531 0 2.04421V8.50517C0.000216746 8.77408 0.0606933 9.04028 0.177934 9.28839C0.295175 9.53651 0.466856 9.76161 0.683054 9.9507C1.12208 10.3346 1.71471 10.5498 2.33213 10.5494H32V7.86241Z" fill="#242936"/>
</svg>
