<svg width="185" height="27" viewBox="0 0 185 27" fill="none" xmlns="http://www.w3.org/2000/svg">
<path d="M36.648 17.992L36.744 20.272C36.776 20.976 36.92 21.552 37.176 22H32.232C32.04 21.632 31.928 21.056 31.896 20.272L31.824 18.328C31.792 17.464 31.592 16.88 31.224 16.576C30.872 16.256 30.296 16.096 29.496 16.096H27V22H22.2V4.912H30.6C32.776 4.912 34.384 5.384 35.424 6.328C36.448 7.288 36.96 8.504 36.96 9.976C36.96 10.856 36.728 11.648 36.264 12.352C35.816 13.056 35.16 13.6 34.296 13.984C35.16 14.304 35.752 14.768 36.072 15.376C36.408 15.984 36.6 16.856 36.648 17.992ZM27 8.656V12.592H29.88C31.304 12.592 32.016 11.936 32.016 10.624C32.016 9.312 31.304 8.656 29.88 8.656H27ZM50.0481 20.512C48.8321 21.696 47.2081 22.288 45.1761 22.288C43.1441 22.288 41.5201 21.696 40.3041 20.512C39.1041 19.328 38.5041 17.76 38.5041 15.808C38.5041 13.824 39.1041 12.248 40.3041 11.08C41.4881 9.912 43.1121 9.328 45.1761 9.328C47.2401 9.328 48.8641 9.912 50.0481 11.08C51.2481 12.264 51.8481 13.84 51.8481 15.808C51.8481 17.76 51.2481 19.328 50.0481 20.512ZM45.1761 12.784C43.6881 12.784 42.9441 13.792 42.9441 15.808C42.9441 17.824 43.6881 18.832 45.1761 18.832C46.6641 18.832 47.4081 17.824 47.4081 15.808C47.4081 13.792 46.6641 12.784 45.1761 12.784ZM61.4282 10.144L61.5722 9.616H66.0842L61.8362 22C61.2282 23.776 60.4442 25.016 59.4842 25.72C58.5082 26.408 56.9802 26.752 54.9002 26.752C54.5002 26.752 53.9802 26.736 53.3402 26.704V23.344H54.5642C55.7162 23.344 56.2922 22.856 56.2922 21.88C56.2922 21.416 56.1002 20.648 55.7162 19.576L52.2122 9.616H56.9402L57.0842 10.12C58.0282 13.464 58.7642 16.312 59.2922 18.664C59.7082 16.744 60.4202 13.904 61.4282 10.144ZM72.6928 22.384C70.6128 22.384 69.0768 22.048 68.0848 21.376C67.1088 20.704 66.5648 19.6 66.4528 18.064H70.7248C70.7888 18.624 70.9728 19.016 71.2768 19.24C71.5968 19.464 72.1008 19.576 72.7888 19.576C73.9568 19.576 74.5408 19.264 74.5408 18.64C74.5408 18.336 74.4048 18.104 74.1328 17.944C73.8608 17.768 73.3728 17.624 72.6688 17.512L70.8928 17.248C68.0288 16.832 66.5968 15.544 66.5968 13.384C66.5968 12.072 67.1008 11.072 68.1088 10.384C69.1328 9.68 70.6128 9.328 72.5488 9.328C76.3888 9.328 78.3968 10.76 78.5728 13.624H74.5168C74.4848 12.632 73.8288 12.136 72.5488 12.136C71.4608 12.136 70.9168 12.448 70.9168 13.072C70.9168 13.36 71.0288 13.576 71.2528 13.72C71.4928 13.864 71.8928 13.976 72.4528 14.056L74.5648 14.344C76.0528 14.552 77.1488 14.976 77.8528 15.616C78.5728 16.256 78.9328 17.144 78.9328 18.28C78.9328 19.592 78.3888 20.608 77.3008 21.328C76.2128 22.032 74.6768 22.384 72.6928 22.384ZM91.5577 20.512C90.3417 21.696 88.7177 22.288 86.6857 22.288C84.6537 22.288 83.0297 21.696 81.8137 20.512C80.6137 19.328 80.0137 17.76 80.0137 15.808C80.0137 13.824 80.6137 12.248 81.8137 11.08C82.9977 9.912 84.6217 9.328 86.6857 9.328C88.7497 9.328 90.3737 9.912 91.5577 11.08C92.7577 12.264 93.3577 13.84 93.3577 15.808C93.3577 17.76 92.7577 19.328 91.5577 20.512ZM86.6857 12.784C85.1977 12.784 84.4537 13.792 84.4537 15.808C84.4537 17.824 85.1977 18.832 86.6857 18.832C88.1737 18.832 88.9177 17.824 88.9177 15.808C88.9177 13.792 88.1737 12.784 86.6857 12.784ZM103.335 9.328C104.615 9.328 105.647 9.736 106.431 10.552C107.215 11.352 107.607 12.496 107.607 13.984V22H103.191V14.92C103.191 13.688 102.631 13.072 101.511 13.072C100.951 13.072 100.487 13.256 100.119 13.624C99.7506 13.976 99.5666 14.48 99.5666 15.136V22H95.1506V9.616H99.4706V11.248C100.463 9.968 101.751 9.328 103.335 9.328ZM121.254 4.912V17.728H128.814V22H116.454V4.912H121.254ZM143.171 16.288V17.08H134.099C134.387 18.472 135.211 19.168 136.571 19.168C137.595 19.168 138.323 18.808 138.755 18.088H142.883C142.547 19.416 141.803 20.448 140.651 21.184C139.483 21.92 138.123 22.288 136.571 22.288C134.587 22.288 132.979 21.696 131.747 20.512C130.515 19.328 129.899 17.76 129.899 15.808C129.899 13.84 130.507 12.272 131.723 11.104C132.939 9.92 134.539 9.328 136.523 9.328C138.507 9.328 140.115 9.944 141.347 11.176C142.563 12.408 143.171 14.112 143.171 16.288ZM136.475 12.448C135.163 12.448 134.371 13.12 134.099 14.464H138.923C138.635 13.12 137.819 12.448 136.475 12.448ZM159.137 13L160.073 9.616H164.801L160.793 22H156.137L154.937 17.728C154.649 16.72 154.385 15.712 154.145 14.704C153.873 15.904 153.617 16.912 153.377 17.728L152.177 22H147.521L143.513 9.616H148.241L149.177 13C149.513 14.216 149.873 15.576 150.257 17.08C150.561 15.72 150.897 14.352 151.265 12.976L152.153 9.616H156.161L157.049 12.976C157.401 14.352 157.737 15.72 158.057 17.08C158.441 15.576 158.801 14.216 159.137 13ZM170.294 8.368H166.142V4.912H170.294V8.368ZM170.414 22H165.998V9.616H170.414V22ZM178.206 22.384C176.126 22.384 174.59 22.048 173.598 21.376C172.622 20.704 172.078 19.6 171.966 18.064H176.238C176.302 18.624 176.486 19.016 176.79 19.24C177.11 19.464 177.614 19.576 178.302 19.576C179.47 19.576 180.054 19.264 180.054 18.64C180.054 18.336 179.918 18.104 179.646 17.944C179.374 17.768 178.886 17.624 178.182 17.512L176.406 17.248C173.542 16.832 172.11 15.544 172.11 13.384C172.11 12.072 172.614 11.072 173.622 10.384C174.646 9.68 176.126 9.328 178.062 9.328C181.902 9.328 183.91 10.76 184.086 13.624H180.03C179.998 12.632 179.342 12.136 178.062 12.136C176.974 12.136 176.43 12.448 176.43 13.072C176.43 13.36 176.542 13.576 176.766 13.72C177.006 13.864 177.406 13.976 177.966 14.056L180.078 14.344C181.566 14.552 182.662 14.976 183.366 15.616C184.086 16.256 184.446 17.144 184.446 18.28C184.446 19.592 183.902 20.608 182.814 21.328C181.726 22.032 180.19 22.384 178.206 22.384Z" fill="#242936"/>
<path fill-rule="evenodd" clip-rule="evenodd" d="M13.9999 7.57432C13.9995 7.10416 13.8952 6.63872 13.6929 6.20492C13.4905 5.77112 13.1943 5.37754 12.8212 5.04695C12.0637 4.37557 11.041 3.99932 9.97557 4H1.02065C0.45718 4 0.00035173 4.4058 0.00035173 4.90626V7.65886C0.00035173 8.15931 0.457164 8.56502 1.02065 8.56502H8.85836C8.85836 8.56502 8.87423 12.9156 8.88155 14.9195C8.88354 15.4672 8.3882 15.914 7.77155 15.9208C6.03009 15.94 2.68888 15.9768 1.01787 15.9952C0.461058 16.0014 0.0126276 16.4029 0.0102101 16.8975C0.00716468 17.5232 0.00309889 18.3574 6.37361e-06 18.9873C-0.000468242 19.1069 0.0255686 19.2253 0.0766042 19.3357C0.12764 19.4461 0.202656 19.5464 0.297296 19.6306C0.489494 19.8017 0.749444 19.8976 1.02033 19.8974H10.6829C12.4878 19.8974 13.9531 18.6014 13.9607 16.9984C13.9764 13.6408 14 8.56512 14 8.56512L13.9999 7.57432Z" fill="#ED7171"/>
<path fill-rule="evenodd" clip-rule="evenodd" d="M13.1994 24C13.6415 24 14 23.6571 14 23.2343V22.2016C14 21.7787 13.6415 21.4359 13.1994 21.4359H0.800638C0.358435 21.4359 0 21.7787 0 22.2016V23.2343C0 23.6571 0.358451 24 0.800638 24H13.1994Z" fill="#242936"/>
<path fill-rule="evenodd" clip-rule="evenodd" d="M14 7.4398C14 5.54006 12.243 4 10.0756 4H1.02032C0.750197 3.99983 0.490914 4.09397 0.298852 4.26195C0.204265 4.34467 0.129153 4.44315 0.0778572 4.5517C0.0265615 4.66024 9.9298e-05 4.7767 0 4.89434V7.72101C9.48266e-05 7.83866 0.0265533 7.95512 0.0778463 8.06367C0.129139 8.17222 0.20425 8.27071 0.298836 8.35343C0.490909 8.5214 0.750185 8.61554 1.02031 8.61538H14V7.4398Z" fill="#FCFCFC" fill-opacity="0.37"/>
</svg>
