<svg xmlns="http://www.w3.org/2000/svg" width="19.216" height="19" viewBox="0 0 19.216 19">
  <g id="auth" transform="translate(-19.961 -146)">
    <rect id="Rectangle_273" data-name="Rectangle 273" width="19" height="19" transform="translate(19.961 146)" fill="rgba(255,255,255,0)"/>
    <path id="Icon_awesome-user-check" data-name="Icon awesome-user-check" d="M6.359,7.267A3.634,3.634,0,1,0,2.725,3.634,3.633,3.633,0,0,0,6.359,7.267ZM8.9,8.175H8.428a4.942,4.942,0,0,1-4.139,0H3.815A3.816,3.816,0,0,0,0,11.991v1.181a1.363,1.363,0,0,0,1.363,1.363h9.992a1.363,1.363,0,0,0,1.363-1.363V11.991A3.816,3.816,0,0,0,8.9,8.175Zm9.169-3.645-.789-.8a.337.337,0,0,0-.477,0L13.83,6.682l-1.292-1.3a.337.337,0,0,0-.477,0l-.8.792a.337.337,0,0,0,0,.477L13.58,8.985a.337.337,0,0,0,.477,0l4.011-3.98a.339.339,0,0,0,0-.477Z" transform="translate(20.461 148.466)" fill="none" stroke="#fc326f" stroke-width="1"/>
  </g>
</svg>
