<svg xmlns="http://www.w3.org/2000/svg" xmlns:xlink="http://www.w3.org/1999/xlink" width="108" height="109" viewBox="0 0 108 109">
  <defs>
    <filter id="Rectangle_262" x="0" y="0" width="108" height="109" filterUnits="userSpaceOnUse">
      <feOffset dy="3" input="SourceAlpha"/>
      <feGaussianBlur stdDeviation="3" result="blur"/>
      <feFlood flood-opacity="0.161"/>
      <feComposite operator="in" in2="blur"/>
      <feComposite in="SourceGraphic"/>
    </filter>
  </defs>
  <g id="backendSkill" transform="translate(-10632 9446)">
    <g transform="matrix(1, 0, 0, 1, 10632, -9446)" filter="url(#Rectangle_262)">
      <rect id="Rectangle_262-2" data-name="Rectangle 262" width="90" height="91" rx="45" transform="translate(9 6)" fill="#6c63ff"/>
    </g>
    <path id="Icon_awesome-server" data-name="Icon awesome-server" d="M35.6,11.743H2.373A2.373,2.373,0,0,1,0,9.37V4.623A2.373,2.373,0,0,1,2.373,2.25H35.6a2.373,2.373,0,0,1,2.373,2.373V9.37A2.373,2.373,0,0,1,35.6,11.743ZM32.04,5.217A1.78,1.78,0,1,0,33.82,7,1.78,1.78,0,0,0,32.04,5.217Zm-4.747,0A1.78,1.78,0,1,0,29.073,7,1.78,1.78,0,0,0,27.293,5.217ZM35.6,23.61H2.373A2.373,2.373,0,0,1,0,21.237V16.49a2.373,2.373,0,0,1,2.373-2.373H35.6a2.373,2.373,0,0,1,2.373,2.373v4.747A2.373,2.373,0,0,1,35.6,23.61Zm-3.56-6.527a1.78,1.78,0,1,0,1.78,1.78A1.78,1.78,0,0,0,32.04,17.083Zm-4.747,0a1.78,1.78,0,1,0,1.78,1.78A1.78,1.78,0,0,0,27.293,17.083ZM35.6,35.477H2.373A2.373,2.373,0,0,1,0,33.1V28.357a2.373,2.373,0,0,1,2.373-2.373H35.6a2.373,2.373,0,0,1,2.373,2.373V33.1A2.373,2.373,0,0,1,35.6,35.477ZM32.04,28.95a1.78,1.78,0,1,0,1.78,1.78A1.78,1.78,0,0,0,32.04,28.95Zm-4.747,0a1.78,1.78,0,1,0,1.78,1.78A1.78,1.78,0,0,0,27.293,28.95Z" transform="translate(10667.689 -9412.008)" fill="#f6f6f6"/>
  </g>
</svg>
