<svg xmlns="http://www.w3.org/2000/svg" width="150.258" height="139" viewBox="0 0 150.258 139"><g transform="translate(-284 -431.807)"><rect width="122.891" height="100.688" transform="translate(409.731 435.422) rotate(90)" fill="#2f2e41"/><rect width="150" height="42" transform="translate(284 528.807)" fill="#3f3d56"/><rect width="150" height="40" transform="translate(284 480.807)" fill="#3f3d56"/><rect width="150" height="41" transform="translate(284 431.807)" fill="#3f3d56"/><rect width="150.258" height="8.262" transform="translate(284 496.917)" fill="#6c63ff"/><rect width="150.258" height="8.262" transform="translate(284 447.864)" fill="#6c63ff"/><rect width="150.258" height="8.262" transform="translate(284 545.97)" fill="#6c63ff"/><ellipse cx="3.5" cy="3" rx="3.5" ry="3" transform="translate(402 484.807)" fill="#6c63ff"/><circle cx="3.5" cy="3.5" r="3.5" transform="translate(402 434.807)" fill="#6c63ff"/><circle cx="3" cy="3" r="3" transform="translate(413 484.807)" fill="#fed200"/><ellipse cx="3" cy="3.5" rx="3" ry="3.5" transform="translate(413 434.807)" fill="#fed200"/><circle cx="3" cy="3" r="3" transform="translate(424 484.807)" fill="#6c63ff"/><ellipse cx="3" cy="3.5" rx="3" ry="3.5" transform="translate(424 434.807)" fill="#6c63ff"/><circle cx="3.5" cy="3.5" r="3.5" transform="translate(402 532.807)" fill="#6c63ff"/><ellipse cx="3" cy="3.5" rx="3" ry="3.5" transform="translate(413 532.807)" fill="#fed200"/><ellipse cx="3" cy="3.5" rx="3" ry="3.5" transform="translate(424 532.807)" fill="#6c63ff"/></g></svg>