<svg xmlns="http://www.w3.org/2000/svg" width="19" height="19.012" viewBox="0 0 19 19.012">
  <g id="database" transform="translate(-21.961 -73)">
    <rect id="Rectangle_273" data-name="Rectangle 273" width="19" height="19" transform="translate(21.961 73)" fill="rgba(255,255,255,0)"/>
    <g id="Icon_feather-database" data-name="Icon feather-database" transform="translate(23.962 74)">
      <path id="Path_222" data-name="Path 222" d="M20.26,5.627c0,1.451-3.528,2.627-7.88,2.627S4.5,7.077,4.5,5.627,8.028,3,12.38,3,20.26,4.176,20.26,5.627Z" transform="translate(-4.501 -3)" fill="none" stroke="#fc326f" strokeLinecap="round" strokeLinejoin="round" strokeWidth="1"/>
      <path id="Path_223" data-name="Path 223" d="M20.26,18c0,1.453-3.5,2.627-7.88,2.627S4.5,19.453,4.5,18" transform="translate(-4.501 -9.244)" fill="none" stroke="#fc326f" strokeLinecap="round" strokeLinejoin="round" strokeWidth="1"/>
      <path id="Path_224" data-name="Path 224" d="M4.5,7.5V19.758c0,1.453,3.5,2.627,7.88,2.627s7.88-1.173,7.88-2.627V7.5" transform="translate(-4.501 -4.873)" fill="none" stroke="#fc326f" strokeLinecap="round" strokeLinejoin="round" strokeWidth="1"/>
    </g>
  </g>
</svg>
