<svg xmlns="http://www.w3.org/2000/svg" width="19.052" height="19" viewBox="0 0 19.052 19">
  <g id="DesignToCode" transform="translate(86.091 -72)">
    <rect id="Rectangle_273" data-name="Rectangle 273" width="19" height="19" transform="translate(-86.039 72)" fill="rgba(255,255,255,0)"/>
    <path id="Icon_awesome-code" data-name="Icon awesome-code" d="M7.715,14.152l-1.688-.49A.332.332,0,0,1,5.8,13.25L9.577.242A.332.332,0,0,1,9.989.015l1.688.49A.332.332,0,0,1,11.9.917L8.127,13.925a.331.331,0,0,1-.412.227Zm-3.154-3.1,1.2-1.284a.332.332,0,0,0-.022-.476l-2.506-2.2,2.506-2.2A.33.33,0,0,0,5.764,4.4l-1.2-1.284a.332.332,0,0,0-.47-.014L.1,6.84a.33.33,0,0,0,0,.484l3.987,3.738a.33.33,0,0,0,.47-.014Zm9.052.017L17.6,7.327a.33.33,0,0,0,0-.484L13.613,3.1a.335.335,0,0,0-.47.014L11.939,4.4a.332.332,0,0,0,.022.476l2.506,2.208-2.506,2.2a.33.33,0,0,0-.022.476l1.2,1.284a.332.332,0,0,0,.47.017Z" transform="translate(-85.589 74.451)" fill="none" stroke="#0dc482" stroke-width="1"/>
  </g>
</svg>
