<svg xmlns="http://www.w3.org/2000/svg" xmlns:xlink="http://www.w3.org/1999/xlink" width="550.313" height="430.142" viewBox="0 0 550.313 430.142">
  <defs>
    <linearGradient id="linear-gradient" x1="-20.453" y1="1" x2="-20.453" gradientUnits="objectBoundingBox">
      <stop offset="0" stop-color="gray" stop-opacity="0.251"/>
      <stop offset="0.535" stop-color="gray" stop-opacity="0.122"/>
      <stop offset="1" stop-color="gray" stop-opacity="0.102"/>
    </linearGradient>
  </defs>
  <g id="essence_hero_desktop" data-name="essence hero desktop" transform="translate(-22.565)">
    <circle id="Ellipse_86" data-name="Ellipse 86" cx="40.823" cy="40.823" r="40.823" transform="translate(223.159 174.99)" fill="#58d06f"/>
    <line id="Line_6" data-name="Line 6" y1="74.051" x2="0.335" transform="translate(263.612 215.589)" fill="#3f3d56" stroke="#3f3d56" stroke-miterlimit="10" stroke-width="2"/>
    <circle id="Ellipse_87" data-name="Ellipse 87" cx="10.472" cy="10.472" r="10.472" transform="translate(253.475 205.117)" fill="#3f3d56"/>
    <path id="Path_938" data-name="Path 938" d="M515.368,501.134s-1.351-32.182-32.035-28.581" transform="translate(-251.627 -239.906)" fill="#3f3d56"/>
    <circle id="Ellipse_88" data-name="Ellipse 88" cx="40.823" cy="40.823" r="40.823" transform="translate(52.147 93.031)" fill="#58d06f"/>
    <line id="Line_7" data-name="Line 7" y1="150.753" x2="2.349" transform="translate(90.658 133.808)" fill="#3f3d56" stroke="#3f3d56" stroke-miterlimit="10" stroke-width="2"/>
    <circle id="Ellipse_89" data-name="Ellipse 89" cx="10.472" cy="10.472" r="10.472" transform="translate(82.535 123.336)" fill="#3f3d56"/>
    <path id="Path_939" data-name="Path 939" d="M258.634,373.917s-.994-32.195-31.717-28.933" transform="translate(-166.292 -197.467)" fill="#3f3d56"/>
    <path id="Path_940" data-name="Path 940" d="M256.46,513.587s7.7-61.761-31.149-65.359" transform="translate(-165.757 -231.904)" fill="none" stroke="#3f3d56" stroke-miterlimit="10" stroke-width="2"/>
    <circle id="Ellipse_90" data-name="Ellipse 90" cx="10.472" cy="10.472" r="10.472" transform="translate(49.082 205.852)" fill="#3f3d56"/>
    <circle id="Ellipse_91" data-name="Ellipse 91" cx="40.823" cy="40.823" r="40.823" transform="translate(139.936 2.402)" fill="#58d06f"/>
    <line id="Line_8" data-name="Line 8" y1="247" transform="translate(180.784 43.374)" fill="#3f3d56" stroke="#3f3d56" stroke-miterlimit="10" stroke-width="2"/>
    <circle id="Ellipse_92" data-name="Ellipse 92" cx="10.472" cy="10.472" r="10.472" transform="translate(170.312 32.786)" fill="#3f3d56"/>
    <circle id="Ellipse_93" data-name="Ellipse 93" cx="10.472" cy="10.472" r="10.472" transform="translate(138.149 211.491)" fill="#3f3d56"/>
    <path id="Path_941" data-name="Path 941" d="M390.968,254.672s-1.5-32.175-32.164-28.435" transform="translate(-210.184 -157.924)" fill="#3f3d56"/>
    <path id="Path_942" data-name="Path 942" d="M390.968,391.384s-1.5-32.176-32.164-28.436" transform="translate(-210.184 -203.422)" fill="#3f3d56"/>
    <path id="Path_943" data-name="Path 943" d="M390.968,522.213S397.7,459.672,358.8,456.68" transform="translate(-210.184 -234.717)" fill="none" stroke="#3f3d56" stroke-miterlimit="10" stroke-width="2"/>
    <circle id="Ellipse_94" data-name="Ellipse 94" cx="10.472" cy="10.472" r="10.472" transform="translate(203.118 113.261)" fill="#3f3d56"/>
    <path id="Path_944" data-name="Path 944" d="M407.753,371.649s-6.732-59.2,32.164-62.2" transform="translate(-226.326 -185.719)" fill="none" stroke="#3f3d56" stroke-miterlimit="10" stroke-width="2"/>
    <path id="Path_945" data-name="Path 945" d="M530.549,259.357a14.678,14.678,0,1,1,14.678-14.678,14.678,14.678,0,0,1-14.678,14.678Zm0-28.022a13.344,13.344,0,1,0,13.344,13.344,13.344,13.344,0,0,0-13.344-13.344Z" transform="translate(-262.456 -159.277)" fill="#3f3d56"/>
    <path id="Path_946" data-name="Path 946" d="M184.549,153.357a14.678,14.678,0,1,1,14.678-14.678A14.678,14.678,0,0,1,184.549,153.357Zm0-28.022a13.344,13.344,0,1,0,13.344,13.344A13.344,13.344,0,0,0,184.549,125.334Z" transform="translate(-147.306 -124)" fill="#3f3d56"/>
    <path id="Path_947" data-name="Path 947" d="M687.549,479.357a14.678,14.678,0,1,1,14.678-14.678A14.678,14.678,0,0,1,687.549,479.357Zm0-28.022a13.344,13.344,0,1,0,13.344,13.344,13.344,13.344,0,0,0-13.344-13.344Z" transform="translate(-340.706 -318.494)" fill="#3f3d56"/>
    <path id="Path_977" data-name="Path 977" d="M359.384,694.918C439.749,694.918,504.9,628.693,504.9,547H213.871C213.871,628.693,279.019,694.918,359.384,694.918Z" transform="translate(-178.508 -264.776)" fill="#3f3d56"/>
    <ellipse id="Ellipse_95" data-name="Ellipse 95" cx="7.5" cy="8" rx="7.5" ry="8" transform="translate(305 133)" fill="#3f3d56"/>
    <ellipse id="Ellipse_96" data-name="Ellipse 96" cx="7.5" cy="8.5" rx="7.5" ry="8.5" transform="translate(354 220)" fill="#3f3d56"/>
    <path id="Path_949" data-name="Path 949" d="M343.307,676.436A129.436,129.436,0,0,0,472.743,547H213.871A129.436,129.436,0,0,0,343.307,676.436Z" transform="translate(-161.949 -264.776)" fill="#58d06f"/>
    <path id="Path_950" data-name="Path 950" d="M871.9,541.8a129.436,129.436,0,0,0,57.077-173.924l-231,116.847A129.437,129.437,0,0,0,871.9,541.8Z" transform="translate(-370.061 -203.163)" fill="#3f3d56"/>
    <path id="Path_951" data-name="Path 951" d="M963.622,267.039c.43-.292.845-.6,1.249-.93a19.161,19.161,0,0,1-3.984,6.806h0c-.418.46-.864.891-1.322,1.307-.009-.106-.019-.211-.025-.316-.053-1.021.021-2.095.035-3.146A13.42,13.42,0,0,0,963.622,267.039Z" transform="translate(-457.105 -169.295)" fill="url(#linear-gradient)"/>
    <path id="Path_952" data-name="Path 952" d="M957.326,202.84a11.775,11.775,0,1,0-21.707-3.871,18.907,18.907,0,0,0-10.755,17.988,18.93,18.93,0,1,0,34.792,10.331c0-.3-.009-.6-.023-.9a18.927,18.927,0,0,0-2.307-23.548Z" transform="translate(-444.549 -142.319)" fill="#2f2e41"/>
    <g id="Group_403" data-name="Group 403" transform="translate(477.244 52.948)" opacity="0.1">
      <path id="Path_953" data-name="Path 953" d="M942.28,201.08c.053-.026.1-.055.156-.081-.037-.2-.064-.411-.09-.618-.006.043-.014.086-.019.129C942.3,200.7,942.293,200.89,942.28,201.08Z" transform="translate(-928.611 -200.368)"/>
      <path id="Path_954" data-name="Path 954" d="M962.565,229.94a18.849,18.849,0,0,1-2.933,8.066c.014.3.023.6.023.9a18.929,18.929,0,0,1-37.8,1.526c-.041.51-.067,1.024-.067,1.544a18.931,18.931,0,0,0,37.863,0c0-.3-.009-.6-.023-.9a18.873,18.873,0,0,0,3-11.886C962.613,229.439,962.595,229.689,962.565,229.94Z" transform="translate(-921.792 -209.956)"/>
      <path id="Path_955" data-name="Path 955" d="M976.6,200.362a11.728,11.728,0,0,1-1.553,4.5c.331.34.644.7.948,1.06A11.777,11.777,0,0,0,976.6,200.362Z" transform="translate(-939.516 -200.362)"/>
    </g>
    <path id="Path_956" data-name="Path 956" d="M860.113,506.48a8.636,8.636,0,0,0,.86,3.1,3.426,3.426,0,0,0,2.51,1.838,5.065,5.065,0,0,0,2.769-.8c1.685-.88,3.435-1.9,4.315-3.589.852-1.632.729-3.58.585-5.415l-1.132-14.436c-2.726-.075-5.466-.074-8.19.075-2.7.147-3.172.782-2.8,3.417C859.781,495.906,859.417,501.232,860.113,506.48Z" transform="translate(-423.625 -242.849)" fill="#fbbebe"/>
    <path id="Path_957" data-name="Path 957" d="M975.674,522.053l6.488,10.482a2.563,2.563,0,0,0,1.411,1.327,2.216,2.216,0,0,0,1.356-.236,16.928,16.928,0,0,0,5.409-4.488,10.02,10.02,0,0,0,2.6-3.985,5.078,5.078,0,0,0-1.3-4.777,15.7,15.7,0,0,0-2.446-1.748c-5.128-3.459-7.443-10.031-12.506-13.585a1.973,1.973,0,0,0-1.026-.441,2.12,2.12,0,0,0-1.054.353l-6.921,3.794c-3,1.64-2.047,1.832.229,3.6C971.268,514.948,973.362,518.585,975.674,522.053Z" transform="translate(-459.194 -248.665)" fill="#fbbebe"/>
    <path id="Path_958" data-name="Path 958" d="M873.745,503.441a4,4,0,0,0-2.911-.133,3.21,3.21,0,0,0-1.517,2.392c-.181.963-.159,1.963-.426,2.906a9.829,9.829,0,0,1-2.83,4,4.125,4.125,0,0,1-1.776,1.237c-.936.24-1.931-.2-2.882-.032a3.137,3.137,0,0,0-2.273,2.317,9.236,9.236,0,0,0-.111,3.4l.736,8.046a12.2,12.2,0,0,1,.03,2.956c-.271,1.769-1.3,3.321-1.87,5.017s-.538,3.861.889,4.941a3.575,3.575,0,0,0,3.415.3,7.938,7.938,0,0,0,2.829-2.148c4.37-4.765,6.32-11.219,9.719-16.719a32.552,32.552,0,0,0,2.322-3.986c.467-1.069.763-2.2,1.14-3.305a33,33,0,0,1,1.872-4.293c.4-.792,1.952-2.7,1.627-3.585C881.173,505.243,875.217,503.9,873.745,503.441Z" transform="translate(-423.175 -248.159)" fill="#2f2e41"/>
    <path id="Path_959" data-name="Path 959" d="M996.56,531.321a8.318,8.318,0,0,1-4.6,3.94,4.146,4.146,0,0,0-1.562.808,2.418,2.418,0,0,0-.274,2.65,8.5,8.5,0,0,0,1.738,2.219,28.684,28.684,0,0,1,7.45,15.013,9.267,9.267,0,0,0,1.235,4.1c1.662,2.271,5.2,2.122,7.7.828a4.979,4.979,0,0,0,1.926-1.561,6.259,6.259,0,0,0,.778-2.375,32.732,32.732,0,0,0,.744-6.3c-.048-4-1.551-7.824-2.269-11.76-1.018-5.585-.508-11.6-3.109-16.648a3.715,3.715,0,0,0-1.187-1.493,4.169,4.169,0,0,0-2.115-.475q-3.525-.144-7.054-.062a2.022,2.022,0,0,0-1.771.662,2.042,2.042,0,0,0,.263,1.914C995.909,525.626,998.271,527.9,996.56,531.321Z" transform="translate(-467.199 -253.847)" fill="#2f2e41"/>
    <path id="Path_960" data-name="Path 960" d="M886.354,384.9a3.629,3.629,0,0,0-.852,4.582c.521.863,1.456,1.667,1.251,2.654-.212,1.025-1.473,1.373-2.506,1.537-9.111,1.449-17.977,4.116-26.811,6.776l-9.266,2.79a27.617,27.617,0,0,0-7.7,3.2,13.857,13.857,0,0,0-4.843,5.785,28.592,28.592,0,0,0-1.8,7.564c-1.392,9.469-3.168,19.031-7.393,27.618l22.473,7.369a33.025,33.025,0,0,0,6.734,1.695,25.092,25.092,0,0,0,6.558-.318c-.14-5.018-.224-10.187-.364-15.205a42.668,42.668,0,0,0-.308-4.742c-.337-2.4-1.083-4.744-1.316-7.161,1.037-.855,2.544-.642,3.887-.6a18.325,18.325,0,0,0,8.785-2.381c2.726-1.4,5.262-3.155,7.973-4.589,4.517-2.389,9.655-4,13.1-7.767-1.757,6.694-5.906,12.528-6.709,19.4-.811,6.945,2.016,13.742,4.783,20.164l8.841,20.518c.976,2.265,2.276,4.812,4.683,5.352a7.072,7.072,0,0,0,4.438-.878c8.137-3.811,14.647-10.976,23.336-13.267-.647-4.3-4.047-7.859-5.972-11.761-1.624-3.291-2.154-7-3.236-10.5s-2.941-7.06-6.21-8.726c-1.552-.791-3.643-1.48-3.788-3.216a3.64,3.64,0,0,1,.345-1.615,21.058,21.058,0,0,1,5.288-7.7,2.338,2.338,0,0,0,.7-.87,2.625,2.625,0,0,0,.052-1.036c-.164-2.794,1.332-5.407,3-7.653s3.6-4.385,4.538-7.02c1.618-4.532.012-9.512-1.587-14.05A14.2,14.2,0,0,0,923.8,385.7c-2.082-2.228-5.325-2.87-8.356-3.2C905.644,381.426,894.142,378.857,886.354,384.9Z" transform="translate(-412.813 -207.541)" fill="#2f2e41"/>
    <g id="Group_404" data-name="Group 404" transform="translate(472.521 177.054)" opacity="0.1">
      <path id="Path_961" data-name="Path 961" d="M914.713,388.036a1.881,1.881,0,0,0,1.42-1.282,1.367,1.367,0,0,0,.023-.382c-.141.1-.284.2-.422.309A3.367,3.367,0,0,0,914.713,388.036Z" transform="translate(-914.713 -386.372)"/>
    </g>
    <path id="Path_962" data-name="Path 962" d="M936.8,276.4a7.374,7.374,0,0,1-2.28,6.071c-.552.461-1.193.81-1.724,1.295a4.659,4.659,0,0,0,.681,7.077c1.787,1.09,4.059.8,6.122.438a35.757,35.757,0,0,0,8.035-2.1A13.335,13.335,0,0,0,953.967,284a7.794,7.794,0,0,1-3.605-6.45c-.136-2.571.569-5.489-1.06-7.483-1.568-1.921-4.519-1.907-6.909-1.247-1.2.331-2.361.789-3.563,1.112-.609.164-2.62.168-3.017.617C935.089,271.364,936.732,275.107,936.8,276.4Z" transform="translate(-447.771 -170.063)" fill="#fbbebe"/>
    <path id="Path_963" data-name="Path 963" d="M936.8,276.4a7.374,7.374,0,0,1-2.28,6.071c-.552.461-1.193.81-1.724,1.295a4.659,4.659,0,0,0,.681,7.077c1.787,1.09,4.059.8,6.122.438a35.757,35.757,0,0,0,8.035-2.1A13.335,13.335,0,0,0,953.967,284a7.794,7.794,0,0,1-3.605-6.45c-.136-2.571.569-5.489-1.06-7.483-1.568-1.921-4.519-1.907-6.909-1.247-1.2.331-2.361.789-3.563,1.112-.609.164-2.62.168-3.017.617C935.089,271.364,936.732,275.107,936.8,276.4Z" transform="translate(-447.771 -170.063)" opacity="0.1"/>
    <circle id="Ellipse_97" data-name="Ellipse 97" cx="13.303" cy="13.303" r="13.303" transform="translate(482.616 79.596)" fill="#fbbebe"/>
    <path id="Path_964" data-name="Path 964" d="M885.31,410.393a9.089,9.089,0,0,1-1.252,2.954,13.838,13.838,0,0,0-1.588,9.079,9.581,9.581,0,0,0,5.592,7.069,3.835,3.835,0,0,0,3.815-.239c-1.777-2.312-1.871-5.468-1.765-8.382a2.781,2.781,0,0,1,.373-1.556.977.977,0,0,1,1.4-.249,12.649,12.649,0,0,0,1.039,5.342c.281.648.762,1.363,1.468,1.345,1.013-.026,1.287-1.4,1.248-2.411-.157-4.126-.359-8.423-2.348-12.042a14.322,14.322,0,0,1-1.975-4.054,2.406,2.406,0,0,0-.509-1.419,1.814,1.814,0,0,0-.748-.349c-1.145-.324-3.856-1.331-4.8-.258C884.25,406.372,885.493,409.018,885.31,410.393Z" transform="translate(-431.398 -215.431)" fill="#fbbebe"/>
    <path id="Path_965" data-name="Path 965" d="M904.514,307.268c-1.526-.172-2.73,1.225-3.566,2.513a48.6,48.6,0,0,0-6.621,15.7c-.645,2.849-1.049,5.808-2.4,8.4a8.139,8.139,0,0,0-.782,1.708,16.859,16.859,0,0,0-.122,2.753c-.141,1.662-1.123,3.139-1.453,4.774-.2.975-.157,1.984-.332,2.962a29.685,29.685,0,0,1-1.851,4.873c-1.061,2.877-1.052,6.035-1.832,9a3.112,3.112,0,0,1-.616,1.337,7.047,7.047,0,0,1-2.068,1.1,4.481,4.481,0,0,0-2.077,3.066,13.277,13.277,0,0,0-.071,3.808l.612,7.869c.63-.264,1.042-.978,1.567-1.415.962-.8,2.374-.62,3.605-.4l1.793.325c1.834.332,3.828.756,5,2.2.935-1.462.4-3.617,1.837-4.589.467-.316,1.046-.423,1.539-.7a3.433,3.433,0,0,0,1.565-2.761,10.137,10.137,0,0,0-.45-3.259c2.3-.972,3.731-3.3,4.633-5.636a46.6,46.6,0,0,0,2.142-8.694c2.08-11.694,3.982-23.472,4.171-35.348a16.982,16.982,0,0,0-.648-5.891C907.437,309.084,906.488,307.49,904.514,307.268Z" transform="translate(-430.845 -182.987)" fill="#d0cde1"/>
    <path id="Path_966" data-name="Path 966" d="M947.124,288.187a16.753,16.753,0,0,1-8.091,4.7,49.98,49.98,0,0,1-9.369,1.38,5.83,5.83,0,0,1-2.9-.25,2,2,0,0,1-1.209-2.373,2.529,2.529,0,0,0,.35-.923c-.016-.81-1.208-.877-1.982-.638-5.121,1.584-10.032,4.72-12.4,9.532a28.8,28.8,0,0,0-2.2,8.772c-1.113,7.886-2.224,15.943-.731,23.767.8,4.172,2.327,8.238,2.422,12.484.053,2.379-.348,4.749-.329,7.129a3.582,3.582,0,0,0,.631,2.352c.368.428.924.7,1.181,1.2.43.841-.145,2,.421,2.751.7.931,2.151.263,3.111-.394A24.759,24.759,0,0,1,932.5,353.53c6.972.748,13.9,4.464,20.662,2.607a9.95,9.95,0,0,1-.9-1.609c-3.372-11.08-3.144-23.465,1.9-33.889,1.724-3.561,4.012-6.955,4.672-10.856a20.669,20.669,0,0,0,.062-5.507,22.764,22.764,0,0,0-3.123-10.106C953.851,291.176,950.666,288.537,947.124,288.187Z" transform="translate(-439.917 -176.642)" fill="#d0cde1"/>
    <path id="Path_967" data-name="Path 967" d="M918.073,416.274a12.115,12.115,0,0,0-.766,4.528,26.5,26.5,0,0,0,.22,4.421,7.043,7.043,0,0,0,1.292,3.473,3.179,3.179,0,0,0,3.321,1.181,3.484,3.484,0,0,0,2-2.228,20.378,20.378,0,0,0,.629-3.034c.583-3.02,2.169-5.854,2.2-8.929a2.51,2.51,0,0,0-.169-1.07c-.577-1.264-3.4-2.683-4.783-2.47C920.29,412.413,918.7,414.814,918.073,416.274Z" transform="translate(-443.051 -217.889)" fill="#fbbebe"/>
    <path id="Path_968" data-name="Path 968" d="M956.731,305.02c-.263,2.645,2.3,4.639,3.307,7.1a11.949,11.949,0,0,1,.7,3.57c.711,8.457.159,16.964-.394,25.433A47.883,47.883,0,0,1,959.3,349.5c-1.428,5.787-4.941,10.8-8.383,15.671a10.085,10.085,0,0,1-5.133,4.233l-11.812,5.722a22.864,22.864,0,0,0-4.2,2.413,11.477,11.477,0,0,0-3.473,4.522c-2.291-1.171-4.671-2.222-6.962-3.393-.536-.274-1.136-.632-1.229-1.227-.124-.8.71-1.362,1.285-1.931,1.075-1.063,1.406-2.639,1.988-4.035,1.9-4.559,6.682-7.477,8.406-12.1.663-1.779.865-3.789,2.041-5.279a13.093,13.093,0,0,1,2.253-1.989,38.326,38.326,0,0,0,5-5.115,8.676,8.676,0,0,0,1.634-2.393,11.98,11.98,0,0,0,.388-4.189c.088-4.62,2.177-8.928,3.455-13.368,1.2-4.181,1.707-8.567,3.287-12.621S952.518,306.11,956.731,305.02Z" transform="translate(-443.319 -182.244)" opacity="0.1"/>
    <path id="Path_969" data-name="Path 969" d="M959.031,305.02c-.263,2.645,2.3,4.639,3.307,7.1a11.956,11.956,0,0,1,.7,3.57c.711,8.457.159,16.964-.394,25.433A47.9,47.9,0,0,1,961.6,349.5c-1.428,5.787-4.941,10.8-8.383,15.671a10.087,10.087,0,0,1-5.133,4.233l-11.812,5.722a22.873,22.873,0,0,0-4.2,2.413,11.48,11.48,0,0,0-3.473,4.522c-2.291-1.171-4.671-2.222-6.963-3.393-.536-.274-1.136-.632-1.229-1.227-.124-.8.71-1.362,1.285-1.931,1.075-1.063,1.406-2.639,1.988-4.035,1.9-4.559,6.682-7.477,8.406-12.1.663-1.779.865-3.789,2.041-5.279a13.1,13.1,0,0,1,2.254-1.989,38.331,38.331,0,0,0,5-5.115,8.667,8.667,0,0,0,1.634-2.393,11.986,11.986,0,0,0,.389-4.189c.088-4.62,2.177-8.928,3.455-13.368,1.2-4.181,1.707-8.567,3.286-12.621S954.819,306.11,959.031,305.02Z" transform="translate(-444.084 -182.244)" fill="#d0cde1"/>
    <path id="Path_970" data-name="Path 970" d="M953.778,229.347a18.844,18.844,0,0,0-11.812,2.445c.525.02,1.052.055,1.583.12a18.93,18.93,0,0,1,7.27,35.144,18.929,18.929,0,0,0,2.958-37.709Z" transform="translate(-451.262 -157.013)" fill="#2f2e41"/>
    <path id="Path_971" data-name="Path 971" d="M956.2,242.255a8.653,8.653,0,0,1,.149,6.631,8.417,8.417,0,0,0-.31-.807c-2.34-5.207-9.548-7.362-16.1-4.814a13.194,13.194,0,0,0-7.776,7.411c-1.668-5.033,1.72-10.816,7.937-13.234C946.65,234.893,953.858,237.048,956.2,242.255Z" transform="translate(-447.858 -159.397)" fill="#2f2e41"/>
    <g id="Group_405" data-name="Group 405" transform="translate(490.705 44.77)" opacity="0.1">
      <path id="Path_972" data-name="Path 972" d="M959.639,246.362a18.952,18.952,0,0,0-12.651-16.332,18.922,18.922,0,0,0-5.021,2.036c.525.02,1.053.055,1.583.12A18.934,18.934,0,0,1,959.639,246.362Z" transform="translate(-941.967 -202.057)"/>
      <path id="Path_973" data-name="Path 973" d="M964.24,225.656a18.951,18.951,0,0,0-12.651-16.332,18.915,18.915,0,0,0-5.021,2.036c.525.02,1.052.055,1.583.12A18.934,18.934,0,0,1,964.24,225.656Z" transform="translate(-943.498 -195.166)"/>
      <path id="Path_974" data-name="Path 974" d="M967.852,197.96a7.125,7.125,0,0,0-10.665-8.628c.317.012.635.033.955.072A11.427,11.427,0,0,1,967.852,197.96Z" transform="translate(-947.032 -188.104)"/>
      <path id="Path_975" data-name="Path 975" d="M974.283,250.665a18.945,18.945,0,0,1-14.665,20,19.049,19.049,0,0,1-4.382,3.531,18.927,18.927,0,0,0,19.047-23.532Z" transform="translate(-946.383 -208.924)"/>
    </g>
    <line id="Line_9" data-name="Line 9" x1="2.448" y1="74.011" transform="translate(457.272 133.799)" fill="none" stroke="#3f3d56" stroke-miterlimit="10" stroke-width="2"/>
    <circle id="Ellipse_98" data-name="Ellipse 98" cx="10.472" cy="10.472" r="10.472" transform="translate(446.8 123.327)" fill="#58d06f"/>
    <path id="Path_976" data-name="Path 976" d="M877.615,376.023s-2.559-32.108-33.086-27.357" transform="translate(-418.835 -196.61)" fill="#58d06f"/>
  </g>
</svg>
