<svg xmlns="http://www.w3.org/2000/svg" width="205.442" height="143.691" viewBox="0 0 205.442 143.691"><g transform="translate(0 -15.03)"><ellipse cx="100.906" cy="6.33" rx="100.906" ry="6.33" transform="translate(3.63 146.061)" fill="#3f3d56"/><circle cx="16.824" cy="16.824" r="16.824" transform="translate(161.499 15.03)" fill="#fed200"/><path d="M120.173,710.235c2.314,4.291,7.225,6.133,7.225,6.133s1.159-5.115-1.155-9.406-7.225-6.133-7.225-6.133S117.859,705.944,120.173,710.235Z" transform="translate(-112.422 -564.05)" fill="#3f3d56"/><path d="M96.592,733.712c4.177,2.513,5.786,7.505,5.786,7.505s-5.164.917-9.341-1.6-5.786-7.505-5.786-7.505S92.414,731.2,96.592,733.712Z" transform="translate(-87.25 -588.939)" fill="#5471ff"/><rect width="165.339" height="5.26" transform="translate(20.377 32.036)" fill="#f2f2f2"/><path d="M267.056,432.451H101.717V396.967l18.253-15.692,147.085-11.153Z" transform="translate(-81.34 -281.636)" fill="#6c63ff"/><circle cx="1.361" cy="1.361" r="1.361" transform="translate(23.44 33.227)" fill="#6c63ff"/><circle cx="1.361" cy="1.361" r="1.361" transform="translate(27.865 33.227)" fill="#6c63ff"/><circle cx="1.361" cy="1.361" r="1.361" transform="translate(32.289 33.227)" fill="#6c63ff"/><path d="M101.717,192.553l165.339-26.935V114.6H101.717Z" transform="translate(-81.34 -77.304)" fill="#fcfcfc"/><rect width="46.171" height="1.862" transform="translate(32.31 67.223)" fill="#3f3d56"/><rect width="46.171" height="1.862" transform="translate(32.31 71.318)" fill="#3f3d56"/><rect width="15.639" height="1.862" transform="translate(32.31 75.414)" fill="#3f3d56"/><path d="M268.625,192.205l-9.015,8.9,9.015,8.9,2.028-2.028-6.817-6.818,6.874-6.874Z" transform="translate(-126.321 -139.447)" fill="#6c63ff"/><path d="M322.252,192.205l9.015,8.9-9.015,8.9-2.028-2.028,6.817-6.818-6.874-6.874Z" transform="translate(-172.562 -139.447)" fill="#6c63ff"/></g></svg>