<svg id="Group_144" data-name="Group 144" xmlns="http://www.w3.org/2000/svg" width="316" height="235.564" viewBox="0 0 316 235.564">
  <ellipse id="Ellipse_20" data-name="Ellipse 20" cx="155.569" cy="15.194" rx="155.569" ry="15.194" transform="translate(4.862 205.176)" fill="#3f3d56"/>
  <ellipse id="Ellipse_21" data-name="Ellipse 21" cx="73.326" cy="11.065" rx="73.326" ry="11.065" transform="translate(133.347 207.158)" opacity="0.1"/>
  <path id="Path_27" data-name="Path 27" d="M206.533,354.14A62.35,62.35,0,1,1,193.9,477.558a62.383,62.383,0,0,0-40.673-93.434A62.313,62.313,0,0,1,206.533,354.14Z" transform="translate(36.68 -268.019)" fill="#6c63ff"/>
  <path id="Path_28" data-name="Path 28" d="M225.581,419.194a62.383,62.383,0,0,0-72.351-61.545A62.359,62.359,0,1,1,179.484,479.4,62.37,62.37,0,0,0,225.581,419.194Z" transform="translate(73.69 -268.929)" opacity="0.1"/>
  <path id="Path_29" data-name="Path 29" d="M245.727,209.053a62.321,62.321,0,1,1,93.427-40.669,62.372,62.372,0,0,0-93.427,40.669Z" transform="translate(-55.521 -93.4)" fill="#6c63ff"/>
  <path id="Path_30" data-name="Path 30" d="M401.774,155.75a62.257,62.257,0,0,0,25.337,50.175c-.268,1.034-.515,2.074-.733,3.128A62.356,62.356,0,0,1,458.74,93.4c.9,0,1.8.023,2.689.063A62.353,62.353,0,0,0,401.774,155.75Z" transform="translate(-236.18 -93.4)" opacity="0.1"/>
  <path id="Path_31" data-name="Path 31" d="M468.924,510.512a18.593,18.593,0,0,1,2.9,1.836,6.236,6.236,0,0,1,2.018,2.731,25.152,25.152,0,0,0,1.249-3.693,61.448,61.448,0,0,1,2.55-6.636,8.841,8.841,0,0,1-4.013-3.082c-1.982,1.965-4,4.013-4.981,6.606-.168.449-.661.928-.776,1.321C467.715,510.182,468.494,510.274,468.924,510.512Z" transform="translate(-275.995 -366.82)" fill="#ffbfc5"/>
  <path id="Path_32" data-name="Path 32" d="M376.5,679.886c0,14.738-10.632,16.3-23.752,16.3S329,694.624,329,679.886s10.632-20.336,23.748-20.336S376.5,665.152,376.5,679.886Z" transform="translate(-128.993 -472.553)" fill="#3f3d56"/>
  <path id="Path_33" data-name="Path 33" d="M545.556,673.122a18.187,18.187,0,0,0-5.925,3.171.611.611,0,0,0-.268.363c-.046.33.41.479.74.575.991.281,1.6,1.2,2.312,1.909s1.866,1.278,2.7.707a2.642,2.642,0,0,0,.568-.6l3.528-4.6A21.364,21.364,0,0,0,545.457,673" transform="translate(-371.187 -481.561)" fill="#f1f1f1"/>
  <path id="Path_34" data-name="Path 34" d="M556.349,675.08c-.469.476-.661,1.163-1.13,1.651a4.037,4.037,0,0,1-1.044.723l-2.7,1.486a7.478,7.478,0,0,1-1.321.618,11.748,11.748,0,0,1-1.549.33,11.151,11.151,0,0,0-2.187.661c-.529.218-1.12.591-1.117,1.163a1.262,1.262,0,0,0,.33.753c1.063,1.341,2.949,1.651,4.654,1.82,3.686.39,7.458.68,11.062-.188a4.719,4.719,0,0,0,1.945-.842,3.681,3.681,0,0,0,.9-3.894,2.108,2.108,0,0,0-.859-1.278,4.452,4.452,0,0,0-1.939-.225,6.119,6.119,0,0,1-1.982-.637c-.413-.185-.885-.426-.991-.915s.452-.912.33-1.321C558.519,674.063,556.779,674.641,556.349,675.08Z" transform="translate(-388.325 -482.561)" fill="#575a89"/>
  <path id="Path_35" data-name="Path 35" d="M556.349,675.08c-.469.476-.661,1.163-1.13,1.651a4.037,4.037,0,0,1-1.044.723l-2.7,1.486a7.478,7.478,0,0,1-1.321.618,11.748,11.748,0,0,1-1.549.33,11.151,11.151,0,0,0-2.187.661c-.529.218-1.12.591-1.117,1.163a1.262,1.262,0,0,0,.33.753c1.063,1.341,2.949,1.651,4.654,1.82,3.686.39,7.458.68,11.062-.188a4.719,4.719,0,0,0,1.945-.842,3.681,3.681,0,0,0,.9-3.894,2.108,2.108,0,0,0-.859-1.278,4.452,4.452,0,0,0-1.939-.225,6.119,6.119,0,0,1-1.982-.637c-.413-.185-.885-.426-.991-.915s.452-.912.33-1.321C558.519,674.063,556.779,674.641,556.349,675.08Z" transform="translate(-388.325 -482.561)" opacity="0.1"/>
  <path id="Path_36" data-name="Path 36" d="M564.726,714.338l-1.136.75a2.031,2.031,0,0,0-.822.813,1.867,1.867,0,0,0,.456,1.741,10,10,0,0,0,4.373,3.389,6.517,6.517,0,0,0,1.9.472.792.792,0,0,0,.439-.053c.347-.185.3-.677.3-1.07a4.617,4.617,0,0,1,1.652-2.89,3.8,3.8,0,0,0,1.377-2.973,3.7,3.7,0,0,0-.991-1.744,7.133,7.133,0,0,0-1.486-1.4c-.8-.525-1.083-.241-1.836.238Q566.826,712.957,564.726,714.338Z" transform="translate(-402.967 -507.067)" fill="#f1f1f1"/>
  <path id="Path_37" data-name="Path 37" d="M587.658,726.567a2.024,2.024,0,0,1-1.787-.4,4.475,4.475,0,0,1-1.159-1.493,12.132,12.132,0,0,1-.72-1.579,3.372,3.372,0,0,0-1.017-1.727,2.123,2.123,0,0,0-2.312.168,12.73,12.73,0,0,0-1.78,1.7,12.03,12.03,0,0,1-5.054,2.811,54.792,54.792,0,0,1-5.707,1.219,3.239,3.239,0,0,0-1.1.353,2.21,2.21,0,0,0-.816,2.4,5.251,5.251,0,0,0,1.414,2.266,5.693,5.693,0,0,0,1.893,1.463,6.042,6.042,0,0,0,1.912.363,32.662,32.662,0,0,0,9.446-.74,25.259,25.259,0,0,1,3.461-.69c.71-.063,1.43-.043,2.14-.092a11.268,11.268,0,0,0,4.089-1.077,1.443,1.443,0,0,0,.743-.621,1.525,1.525,0,0,0,.056-.819l-.472-4.142c-.043-.36-.162-.809-.522-.865s-.588.3-.8.568a2.93,2.93,0,0,1-3.5.766" transform="translate(-422.213 -513.767)" fill="#575a89"/>
  <path id="Path_38" data-name="Path 38" d="M458,579.285c-2.078-.235-4.489-.274-5.9,1.275a7.723,7.723,0,0,0-1.42,3.528,22.907,22.907,0,0,1-2.253,6,33.927,33.927,0,0,0-1.982,3.5,24.129,24.129,0,0,0-1.017,3.993A24.092,24.092,0,0,1,437,611.006c.75,2.038,2.92,3.2,5.03,3.726a2.771,2.771,0,0,0,1.576.049,2.814,2.814,0,0,0,1.021-.753,35,35,0,0,0,2.751-3.372c3.042-4.063,6.127-8.208,7.785-13,.581-1.685,1.163-3.633,2.8-4.35a5.31,5.31,0,0,1,3-.106,40.648,40.648,0,0,1,6.579,1.688c2.286.8,4.9,1.774,6.992.558A5.212,5.212,0,0,0,476.8,591.9a14.614,14.614,0,0,0,0-4.327,4.456,4.456,0,0,0-.456-1.869,4.054,4.054,0,0,0-1.093-1.106,22.512,22.512,0,0,0-6.157-3.3,39.323,39.323,0,0,0-6.586-1.364Q460.265,579.539,458,579.285Z" transform="translate(-265.13 -418.718)" fill="#575a89"/>
  <path id="Path_39" data-name="Path 39" d="M458,579.285c-2.078-.235-4.489-.274-5.9,1.275a7.723,7.723,0,0,0-1.42,3.528,22.907,22.907,0,0,1-2.253,6,33.927,33.927,0,0,0-1.982,3.5,24.129,24.129,0,0,0-1.017,3.993A24.092,24.092,0,0,1,437,611.006c.75,2.038,2.92,3.2,5.03,3.726a2.771,2.771,0,0,0,1.576.049,2.814,2.814,0,0,0,1.021-.753,35,35,0,0,0,2.751-3.372c3.042-4.063,6.127-8.208,7.785-13,.581-1.685,1.163-3.633,2.8-4.35a5.31,5.31,0,0,1,3-.106,40.648,40.648,0,0,1,6.579,1.688c2.286.8,4.9,1.774,6.992.558A5.212,5.212,0,0,0,476.8,591.9a14.614,14.614,0,0,0,0-4.327,4.456,4.456,0,0,0-.456-1.869,4.054,4.054,0,0,0-1.093-1.106,22.512,22.512,0,0,0-6.157-3.3,39.323,39.323,0,0,0-6.586-1.364Q460.265,579.539,458,579.285Z" transform="translate(-265.13 -418.718)" opacity="0.1"/>
  <path id="Path_40" data-name="Path 40" d="M522.957,622.7a10.725,10.725,0,0,0-2.642,1.866,9.483,9.483,0,0,0-1.79,3.214,3.9,3.9,0,0,0-.31,1.242,1.411,1.411,0,0,0,.459,1.149,2.057,2.057,0,0,0,1.3.33c.6,0,1.206,0,1.807-.046a3.022,3.022,0,0,0,1.07-.2,2.969,2.969,0,0,0,.832-.631,11.7,11.7,0,0,0,2.56-3.455c.436-.961,1.156-3.181.469-4.182S523.7,622.277,522.957,622.7Z" transform="translate(-341.982 -447.148)" fill="#ffbfc5"/>
  <path id="Path_41" data-name="Path 41" d="M416.858,623.87c-3.075.991-6.348,1.1-9.562,1.4a79.87,79.87,0,0,0-15.937,3.151,8.558,8.558,0,0,0-3.006,1.4,8.936,8.936,0,0,0-1.744,2.22,37.486,37.486,0,0,0-2.289,4c-.585,1.249-1.03,2.557-1.572,3.822a26.857,26.857,0,0,1-8.38,10.731,3.645,3.645,0,0,0-1.589,1.889,2.622,2.622,0,0,0,.248,1.552,9.673,9.673,0,0,0,4.165,4.218,4.372,4.372,0,0,1,1.922,1.674c2.622-1.083,4.575-3.4,6.2-5.721s3.065-4.832,5.146-6.761a18.247,18.247,0,0,0,2.679-2.616c1.1-1.559,1.4-3.693,2.877-4.895s3.633-1.047,5.546-.859a136.086,136.086,0,0,0,29.446-.33,14.737,14.737,0,0,0,5.879-1.6,5.443,5.443,0,0,0,2.884-5.034,5.587,5.587,0,0,0-3.584-4.152,20.155,20.155,0,0,0-5.615-1.093A58.7,58.7,0,0,1,416.858,623.87Z" transform="translate(-206.741 -448.658)" fill="#575a89"/>
  <path id="Path_42" data-name="Path 42" d="M398.681,549.274c-.241-1.612-.865-3.138-1.258-4.72a28.557,28.557,0,0,0-.746-2.949c0-.03-.023-.056-.033-.083a.68.68,0,0,1-.5-.287.832.832,0,0,1-.043-.443,3.21,3.21,0,0,0,0-.472,33.776,33.776,0,0,0-2.107-3.121c-1.321-1.886-2.484-3.891-3.633-5.892-.945-1.651-1.889-3.283-2.669-5.007-.588-1.292-1.08-2.642-1.728-3.891-2.312-4.492-6.447-7.8-10.9-10.183-4.274-2.282-8.895-3.818-13.387-5.635a3.038,3.038,0,0,0-.314.37c-2.428,3.319-2.689,7.679-3.689,11.669a20.4,20.4,0,0,0-.941,4.875c0,2.451,1.173,4.73,2.338,6.887a37.243,37.243,0,0,0,3.67,5.856c.687.852,1.443,1.651,2.134,2.494,2.834,3.471,4.469,7.742,6.061,11.934.918,2.428,2.424,4.578,3.435,6.969a27.3,27.3,0,0,0,1.1,2.778,2.941,2.941,0,0,0,2.335,1.651,3.5,3.5,0,0,0,.862-.135c3.61-.928,6.632-3.3,9.631-5.529.538-.4,1.077-.786,1.652-1.143s1.156-.684,1.744-.991l1.341-.737c1.46-.8,2.926-1.6,4.449-2.279a8.079,8.079,0,0,0,1.321-.661,7.881,7.881,0,0,0-.126-1.324Z" transform="translate(-160.459 -370.115)" fill="#3f3d56"/>
  <ellipse id="Ellipse_22" data-name="Ellipse 22" cx="8.317" cy="8.317" rx="8.317" ry="8.317" transform="translate(182.713 126.781)" fill="#ffbfc5"/>
  <path id="Path_43" data-name="Path 43" d="M466.521,469.7a1.982,1.982,0,0,1-2.048.961,2.871,2.871,0,0,1-1.912-1.364,5.4,5.4,0,0,1-.707-2.292,2.4,2.4,0,0,1,.347-1.813,3.983,3.983,0,0,1,1.054-.74,4.009,4.009,0,0,0,1.321-1.321c.231-.386.4-.806.608-1.2a4.46,4.46,0,0,1,3.851-2.553,18.385,18.385,0,0,1,2.292.456c2.58.453,5.381-.912,7.775.152a7.268,7.268,0,0,1,1.625,1.083q1.011.836,1.942,1.757a4.009,4.009,0,0,1,1.182,1.721c.33,1.222-.446,2.586.046,3.749a5.524,5.524,0,0,0,.6.941c.542.8-.046,3.9,0,4.865a1.8,1.8,0,0,1-.33,1.321,2.169,2.169,0,0,1-1.651.482h-1.08a1.37,1.37,0,0,1-.479-.05,1.45,1.45,0,0,1-.545-.416c-.9-.948-1.09-4.043-2.395-4.03a.931.931,0,0,0-.565.145c-.234.172-.3.492-.472.73a1.381,1.381,0,0,1-1.6.377,3.613,3.613,0,0,1-1.364-1.1,5.375,5.375,0,0,0-1.275-1.219c-.7-.406-1.483-.581-2.16-1.04a18.743,18.743,0,0,1-1.394-1.361,1.172,1.172,0,0,0-1.48-.083C466.921,468.288,466.888,468.975,466.521,469.7Z" transform="translate(-281.09 -338.495)" fill="#3f3d56"/>
  <path id="Path_44" data-name="Path 44" d="M453.818,534.731a13.234,13.234,0,0,0-5.793.462,3.079,3.079,0,0,0-1.615.961,2.9,2.9,0,0,0-.462,1.209,9.774,9.774,0,0,0,.7,5.893.779.779,0,0,1,.1.627,1.11,1.11,0,0,1-.33.33,1.149,1.149,0,0,0,.069,1.714c.155.112.36.211.39.4s-.162.37-.314.515a1.847,1.847,0,0,0-.515,1.7,3.719,3.719,0,0,1,.168.75,2.447,2.447,0,0,1-.274.9,3.92,3.92,0,0,0-.248,1.982,2.181,2.181,0,0,1,.023.968,2.256,2.256,0,0,1-.37.581c-.6.806-.727,2.154.139,2.642a2,2,0,0,0-1.067,2.068c-.519-.274-1.146.079-1.579.476s-.872.885-1.457.915c-.41.02-.842-.192-1.212-.023-.568.254-.548,1.176-1.107,1.45-.489.244-1.172-.152-1.589.2-.145.122-.218.31-.36.439-.314.291-.809.168-1.239.149a2.949,2.949,0,0,0-2.474,1.513,7.364,7.364,0,0,0-.849,2.9,3.835,3.835,0,0,0,.033,1.668,1.43,1.43,0,0,0,1.172,1.057c5.1.33,10.14-.9,15.111-2.1a11.753,11.753,0,0,0,4.162-1.652,12.706,12.706,0,0,0,2.712-3.042,29.662,29.662,0,0,0,6.52-15.758,8.7,8.7,0,0,0,.215-2.609,7.4,7.4,0,0,0-1.149-2.86,31.129,31.129,0,0,0-2.312-3.28A8.572,8.572,0,0,0,453.818,534.731Z" transform="translate(-249.17 -388.872)" opacity="0.1"/>
  <path id="Path_45" data-name="Path 45" d="M454.9,533.731a13.214,13.214,0,0,0-5.8.466,3.052,3.052,0,0,0-1.615.958,2.948,2.948,0,0,0-.462,1.209,9.8,9.8,0,0,0,.7,5.893.78.78,0,0,1,.1.628,1.108,1.108,0,0,1-.33.33,1.149,1.149,0,0,0,.069,1.714c.155.112.36.211.39.4s-.162.37-.33.515a1.846,1.846,0,0,0-.515,1.7,3.724,3.724,0,0,1,.168.75,2.441,2.441,0,0,1-.271.9,3.888,3.888,0,0,0-.251,1.982,1.427,1.427,0,0,1-.347,1.549c-.6.806-.727,2.154.139,2.662a2,2,0,0,0-1.067,2.064c-.519-.274-1.146.079-1.579.476s-.872.885-1.457.915c-.41.02-.839-.192-1.212-.023-.568.258-.548,1.176-1.107,1.453-.489.241-1.173-.155-1.589.2-.145.122-.218.31-.36.439-.314.291-.809.168-1.239.149a2.95,2.95,0,0,0-2.474,1.513,7.433,7.433,0,0,0-.849,2.9,3.942,3.942,0,0,0,.033,1.651,1.43,1.43,0,0,0,1.173,1.057c5.1.33,10.14-.9,15.111-2.1a11.721,11.721,0,0,0,4.162-1.651,12.642,12.642,0,0,0,2.712-3.042,29.633,29.633,0,0,0,6.52-15.755,8.721,8.721,0,0,0,.215-2.613,7.4,7.4,0,0,0-1.12-2.864,30.307,30.307,0,0,0-2.312-3.276A8.6,8.6,0,0,0,454.9,533.731Z" transform="translate(-250.59 -388.203)" fill="#3f3d56"/>
  <path id="Path_46" data-name="Path 46" d="M1026.14,330.812a6.642,6.642,0,1,1,3.326-12.832A19.314,19.314,0,0,0,1026.14,330.812Z" transform="translate(-1010.438 -243.578)" fill="#e6e6e6"/>
  <path id="Path_47" data-name="Path 47" d="M1057.33,322.682a6.642,6.642,0,1,1,3.326-12.832A19.317,19.317,0,0,0,1057.33,322.682Z" transform="translate(-1051.93 -238.133)" fill="#e6e6e6"/>
  <path id="Path_48" data-name="Path 48" d="M958.15,314.615a6.642,6.642,0,0,0,3.326-12.832,19.276,19.276,0,0,1,20.673-7.712,52.917,52.917,0,0,0-10.272,37.155A19.276,19.276,0,0,1,958.15,314.615Z" transform="translate(-942.448 -227.38)" fill="#e6e6e6"/>
  <path id="Path_49" data-name="Path 49" d="M635.921,374.13a19.286,19.286,0,0,1,14.916,15.289A6.642,6.642,0,0,0,648.7,402.4a19.26,19.26,0,0,1-22.863,8.882A52.93,52.93,0,0,0,635.921,374.13Z" transform="translate(-501.375 -281.406)" fill="#e6e6e6"/>
  <path id="Path_50" data-name="Path 50" d="M608.234,420.42A6.646,6.646,0,1,1,606.1,433.4,19.336,19.336,0,0,0,608.234,420.42Z" transform="translate(-458.779 -312.407)" fill="#e6e6e6"/>
  <path id="Path_51" data-name="Path 51" d="M571.444,429.12A6.646,6.646,0,1,1,569.31,442.1,19.359,19.359,0,0,0,571.444,429.12Z" transform="translate(-409.837 -318.233)" fill="#e6e6e6"/>
  <path id="Path_52" data-name="Path 52" d="M867.111,246l10.7,13.116a18.756,18.756,0,0,0-1.351,2.523L864.68,247.2C865.489,246.763,866.292,246.36,867.111,246Z" transform="translate(-807.242 -195.597)" fill="#e6e6e6"/>
  <path id="Path_53" data-name="Path 53" d="M671,289.872a19.275,19.275,0,1,0,10.273-37.157A53.257,53.257,0,0,1,697.05,238.7l-2.9,2.368,15,18.371a19.276,19.276,0,1,0,24.032-18.246l1.206-.991-6.936-8.492a52.847,52.847,0,0,1,48.669,47.041A19.273,19.273,0,0,0,766.029,315.9,52.847,52.847,0,0,1,671,289.872Zm57.224,34.942a19.279,19.279,0,1,0-27.124-2.748A19.28,19.28,0,0,0,728.224,324.814Z" transform="translate(-641.571 -186.027)" fill="#e6e6e6"/>
  <path id="Path_54" data-name="Path 54" d="M819.52,232q1.569-.208,3.151-.33l7.293,8.938a19.014,19.014,0,0,0-3.039.452Z" transform="translate(-744.474 -186)" fill="#e6e6e6"/>
  <path id="Path_55" data-name="Path 55" d="M854.965,248.306l-8.875-10.873q1.367-.446,2.748-.812l8.281,10.143a19.664,19.664,0,0,0-2.061,1.463Z" transform="translate(-780.404 -189.315)" fill="#e6e6e6"/>
</svg>
