<svg xmlns="http://www.w3.org/2000/svg" width="28.786" height="23.379" viewBox="0 0 28.786 23.379">
  <path id="twitter" data-name="twitter" d="M25.827,9.207c.018.256.018.511.018.767,0,7.8-5.936,16.786-16.786,16.786A16.672,16.672,0,0,1,0,24.112a12.2,12.2,0,0,0,1.425.073,11.815,11.815,0,0,0,7.324-2.521,5.91,5.91,0,0,1-5.516-4.091,7.44,7.44,0,0,0,1.114.091,6.24,6.24,0,0,0,1.553-.2,5.9,5.9,0,0,1-4.731-5.79V11.6a5.942,5.942,0,0,0,2.667.749A5.908,5.908,0,0,1,2.009,4.458a16.769,16.769,0,0,0,12.165,6.174,6.66,6.66,0,0,1-.146-1.352,5.905,5.905,0,0,1,10.21-4.037,11.615,11.615,0,0,0,3.744-1.425A5.884,5.884,0,0,1,25.388,7.07a11.827,11.827,0,0,0,3.4-.913A12.682,12.682,0,0,1,25.827,9.207Z" transform="translate(0 -3.381)" fill="#3f3d56"/>
</svg>
