<svg xmlns="http://www.w3.org/2000/svg" width="26.261" height="26.261" viewBox="0 0 26.261 26.261">
  <path id="linkedin" data-name="linkedin" d="M24.386,2.25H1.87A1.884,1.884,0,0,0,0,4.143V26.618a1.884,1.884,0,0,0,1.87,1.893H24.386a1.889,1.889,0,0,0,1.876-1.893V4.143A1.889,1.889,0,0,0,24.386,2.25ZM7.937,24.76H4.045V12.227h3.9V24.76ZM5.991,10.515A2.257,2.257,0,1,1,8.248,8.258a2.258,2.258,0,0,1-2.257,2.257ZM22.527,24.76H18.635v-6.1c0-1.454-.029-3.324-2.022-3.324-2.028,0-2.339,1.583-2.339,3.218v6.2H10.381V12.227h3.734v1.712h.053a4.1,4.1,0,0,1,3.687-2.022c3.939,0,4.672,2.6,4.672,5.973Z" transform="translate(0 -2.25)" fill="#3f3d56"/>
</svg>
