<svg xmlns="http://www.w3.org/2000/svg" width="28.777" height="28.058" viewBox="0 0 28.777 28.058">
  <path id="github" data-name="github" d="M9.625,23.154c0,.116-.133.209-.3.209-.191.017-.325-.075-.325-.209,0-.116.133-.209.3-.209C9.474,22.928,9.625,23.021,9.625,23.154Zm-1.8-.261c-.041.116.075.249.249.284a.272.272,0,0,0,.36-.116c.035-.116-.075-.249-.249-.3A.3.3,0,0,0,7.821,22.893Zm2.564-.1c-.168.041-.284.151-.267.284.017.116.168.191.342.151s.284-.151.267-.267S10.553,22.777,10.385,22.795ZM14.2.563A13.912,13.912,0,0,0,0,14.719,14.546,14.546,0,0,0,9.834,28.6c.743.133,1-.325,1-.7,0-.36-.017-2.344-.017-3.562,0,0-4.061.87-4.914-1.729,0,0-.661-1.688-1.613-2.123,0,0-1.329-.911.093-.893a3.062,3.062,0,0,1,2.239,1.5A3.067,3.067,0,0,0,10.855,22.3a3.225,3.225,0,0,1,.928-1.955c-3.243-.36-6.515-.83-6.515-6.411a4.4,4.4,0,0,1,1.369-3.417,5.482,5.482,0,0,1,.151-3.939c1.213-.377,4,1.566,4,1.566a13.706,13.706,0,0,1,7.287,0s2.791-1.949,4-1.566a5.479,5.479,0,0,1,.151,3.939,4.51,4.51,0,0,1,1.5,3.417c0,5.6-3.417,6.045-6.66,6.411a3.431,3.431,0,0,1,.986,2.692c0,1.955-.017,4.375-.017,4.85,0,.377.267.835,1,.7a14.412,14.412,0,0,0,9.735-13.866A14.226,14.226,0,0,0,14.2.563ZM5.639,20.573c-.075.058-.058.191.041.3.093.093.226.133.3.058.075-.058.058-.191-.041-.3C5.848,20.538,5.715,20.5,5.639,20.573Zm-.627-.47c-.041.075.017.168.133.226a.173.173,0,0,0,.249-.041c.041-.075-.017-.168-.133-.226C5.146,20.027,5.053,20.045,5.013,20.1Zm1.88,2.065c-.093.075-.058.249.075.36.133.133.3.151.377.058.075-.075.041-.249-.075-.36C7.142,22.093,6.968,22.075,6.892,22.168Zm-.661-.853c-.093.058-.093.209,0,.342s.249.191.325.133a.265.265,0,0,0,0-.36C6.475,21.3,6.324,21.24,6.231,21.315Z" transform="translate(0 -0.563)" fill="#3f3d56"/>
</svg>
