<svg xmlns="http://www.w3.org/2000/svg" xmlns:xlink="http://www.w3.org/1999/xlink" width="109" height="109" viewBox="0 0 109 109">
  <defs>
    <filter id="otherSkill" x="0" y="0" width="109" height="109" filterUnits="userSpaceOnUse">
      <feOffset dy="3" input="SourceAlpha"/>
      <feGaussianBlur stdDeviation="3" result="blur"/>
      <feFlood flood-opacity="0.161"/>
      <feComposite operator="in" in2="blur"/>
      <feComposite in="SourceGraphic"/>
    </filter>
  </defs>
  <g id="otherSkill-2" data-name="otherSkill" transform="translate(-11058 9446)">
    <g transform="matrix(1, 0, 0, 1, 11058, -9446)" filter="url(#otherSkill)">
      <rect id="otherSkill-3" data-name="otherSkill" width="91" height="91" rx="45.5" transform="translate(9 6)" fill="#6c63ff"/>
    </g>
    <path id="Icon_open-puzzle-piece" data-name="Icon open-puzzle-piece" d="M12.537,0A4.232,4.232,0,0,0,9.528,1.17a4.232,4.232,0,0,0-1.17,3.009c0,1.17.752,2.006,1.17,3.009a3.01,3.01,0,0,1,.125,1.17H0V33.432H9.653a4.126,4.126,0,0,0-.125-1.17c-.418-1-1.17-1.839-1.17-3.009a4.232,4.232,0,0,1,1.17-3.009,4.232,4.232,0,0,1,3.009-1.17,4.232,4.232,0,0,1,3.009,1.17,4.232,4.232,0,0,1,1.17,3.009c0,1.17-.752,2.006-1.17,3.009a3.01,3.01,0,0,0-.125,1.17h9.653V23.778a4.127,4.127,0,0,1,1.17.125c1,.418,1.839,1.17,3.009,1.17a4.18,4.18,0,1,0,0-8.358c-1.17,0-2.006.752-3.009,1.17a3.01,3.01,0,0,1-1.17.125V8.358H15.42a4.127,4.127,0,0,1,.125-1.17c.418-1,1.17-1.839,1.17-3.009a4.232,4.232,0,0,0-1.17-3.009A4.232,4.232,0,0,0,12.537,0Z" transform="translate(11099.028 -9412.886)" fill="#f6f6f6"/>
  </g>
</svg>
