<svg xmlns="http://www.w3.org/2000/svg" width="19" height="19" viewBox="0 0 19 19">
  <g id="react" transform="translate(86.039 1)">
    <rect id="Rectangle_273" data-name="Rectangle 273" width="19" height="19" transform="translate(-86.039 -1)" fill="rgba(255,255,255,0)"/>
    <path id="Icon_awesome-react" data-name="Icon awesome-react" d="M15.519,7.639q-.3-.1-.6-.189c.033-.137.063-.275.093-.412.456-2.212.156-3.989-.857-4.576-.976-.56-2.568.022-4.179,1.425-.16.137-.315.282-.464.427-.1-.1-.2-.193-.308-.286-1.688-1.5-3.381-2.13-4.394-1.54-.972.564-1.262,2.238-.854,4.331.041.208.085.412.137.62-.238.067-.471.141-.69.219C1.421,8.344,0,9.427,0,10.548c0,1.158,1.514,2.319,3.574,3.024.167.056.334.111.5.16-.056.223-.1.442-.148.668-.39,2.06-.085,3.692.887,4.253,1,.579,2.687-.015,4.327-1.451.13-.115.26-.234.39-.36.163.16.334.312.5.46,1.588,1.366,3.158,1.919,4.127,1.358,1-.579,1.329-2.334.905-4.472q-.05-.245-.111-.5c.119-.033.234-.071.349-.108C17.449,12.871,19,11.724,19,10.548c0-1.124-1.462-2.215-3.481-2.909ZM10.5,4.488c1.38-1.2,2.668-1.674,3.254-1.336.627.36.868,1.815.475,3.726-.026.126-.052.249-.085.371a19,19,0,0,0-2.5-.393,18.749,18.749,0,0,0-1.581-1.971c.145-.137.286-.267.434-.4ZM6.2,12.474c.189.323.382.646.586.961a16.8,16.8,0,0,1-1.722-.278,17.335,17.335,0,0,1,.6-1.651c.171.327.345.649.531.969ZM5.08,8.01c.534-.119,1.1-.215,1.692-.289-.2.308-.39.623-.571.943s-.36.638-.527.965c-.234-.553-.43-1.095-.594-1.618ZM6.1,10.567c.245-.512.512-1.013.794-1.507s.586-.972.905-1.444c.557-.041,1.124-.063,1.7-.063s1.15.022,1.7.063q.473.7.9,1.436t.805,1.5q-.373.768-.8,1.514c-.282.494-.583.972-.9,1.447-.553.041-1.128.059-1.711.059s-1.147-.019-1.692-.052q-.484-.707-.913-1.447c-.286-.494-.549-.995-.8-1.507Zm6.7,1.9c.189-.327.367-.657.542-.991a17.227,17.227,0,0,1,.627,1.644,16.3,16.3,0,0,1-1.744.3C12.424,13.1,12.613,12.786,12.8,12.467Zm.534-2.839c-.174-.327-.353-.653-.538-.972s-.371-.627-.568-.935a17.077,17.077,0,0,1,1.7.3,16.423,16.423,0,0,1-.6,1.611ZM9.507,5.453a16.3,16.3,0,0,1,1.1,1.329c-.735-.033-1.473-.033-2.208,0C8.762,6.3,9.136,5.857,9.507,5.453ZM5.2,3.178c.623-.364,2.008.156,3.466,1.447.093.082.186.171.282.26A18.854,18.854,0,0,0,7.359,6.856a19.561,19.561,0,0,0-2.494.386c-.048-.189-.089-.382-.13-.575C4.386,4.87,4.616,3.516,5.2,3.178ZM4.294,12.96c-.156-.045-.308-.093-.46-.145A7.569,7.569,0,0,1,1.5,11.658a1.665,1.665,0,0,1-.7-1.11C.8,9.869,1.971,9,3.663,8.411c.212-.074.427-.141.642-.2a19.733,19.733,0,0,0,.909,2.36,20.285,20.285,0,0,0-.92,2.394ZM8.621,16.6a6.792,6.792,0,0,1-2.093,1.31,1.642,1.642,0,0,1-1.31.048c-.59-.341-.835-1.651-.5-3.414.041-.208.085-.416.137-.62a18.565,18.565,0,0,0,2.52.364,19.584,19.584,0,0,0,1.6,1.982C8.858,16.382,8.739,16.493,8.621,16.6Zm.909-.9c-.379-.408-.757-.861-1.124-1.347.356.015.724.022,1.095.022s.757-.007,1.128-.026A16,16,0,0,1,9.53,15.7Zm4.85,1.113a1.649,1.649,0,0,1-.612,1.162c-.59.341-1.848-.1-3.206-1.269-.156-.134-.312-.278-.471-.427a18.358,18.358,0,0,0,1.566-1.989,18.294,18.294,0,0,0,2.531-.39c.037.152.071.3.1.453A6.765,6.765,0,0,1,14.38,16.808Zm.675-3.989c-.1.033-.208.067-.315.1a18.852,18.852,0,0,0-.946-2.368A18.757,18.757,0,0,0,14.7,8.214c.193.056.379.115.557.174,1.729.594,2.943,1.477,2.943,2.152,0,.727-1.3,1.666-3.147,2.279ZM9.5,12.263a1.7,1.7,0,1,0-1.7-1.7A1.7,1.7,0,0,0,9.5,12.263Z" transform="translate(-86.039 -2)" fill="#0dc482"/>
  </g>
</svg>
