<svg xmlns="http://www.w3.org/2000/svg" width="19" height="19" viewBox="0 0 19 19">
  <g id="Redux" transform="translate(-111 -1209)">
    <rect id="Rectangle_273" data-name="Rectangle 273" width="19" height="19" transform="translate(111 1209)" fill="rgba(255,255,255,0)"/>
    <path id="Icon_simple-redux" data-name="Icon simple-redux" d="M12.684,13.044a1.269,1.269,0,0,0,1.143-1.338,1.317,1.317,0,0,0-1.3-1.257h-.047A1.3,1.3,0,0,0,11.222,11.8a1.392,1.392,0,0,0,.377.879,8.412,8.412,0,0,1-3.816,3.657,6.256,6.256,0,0,1-3.77.708,3.287,3.287,0,0,1-2.376-1.371,3.408,3.408,0,0,1-.194-3.61,5.388,5.388,0,0,1,1.6-1.863,7.6,7.6,0,0,1-.32-1.176c-3.383,2.423-3.039,5.735-2.011,7.3A4.868,4.868,0,0,0,4.756,18.2a5.934,5.934,0,0,0,1.405-.148,8.94,8.94,0,0,0,6.512-4.981l.011-.024Zm4.078-2.857A9.43,9.43,0,0,0,9.416,6.965H9.027a1.23,1.23,0,0,0-1.142-.686H7.851A1.279,1.279,0,0,0,6.6,7.616,1.317,1.317,0,0,0,7.9,8.873h.056a1.289,1.289,0,0,0,1.142-.8H9.52a8.849,8.849,0,0,1,4.948,1.519,6.263,6.263,0,0,1,2.468,2.971,3.155,3.155,0,0,1-.034,2.743,3.4,3.4,0,0,1-3.2,1.919,5.964,5.964,0,0,1-2.263-.491c-.274.227-.731.6-1.063.834a7.336,7.336,0,0,0,3,.719,5.1,5.1,0,0,0,4.513-2.468,5.229,5.229,0,0,0-1.12-5.655ZM4.949,13.454a1.315,1.315,0,0,0,1.3,1.257H6.3a1.3,1.3,0,0,0-.034-2.6H6.217a.491.491,0,0,0-.172.022,8.534,8.534,0,0,1-1.2-5.163,6.2,6.2,0,0,1,1.37-3.611,4.061,4.061,0,0,1,2.857-1.3c2.468-.047,3.5,3.028,3.576,4.251l1.142.342C13.528,2.9,11.2.931,8.97.931a5.294,5.294,0,0,0-4.8,3.748,9.6,9.6,0,0,0,.937,8.112,1.011,1.011,0,0,0-.159.662Z" transform="translate(111.27 1208.551)" fill="#0dc482"/>
  </g>
</svg>
