<svg xmlns="http://www.w3.org/2000/svg" width="19.5" height="19.615" viewBox="0 0 19.5 19.615">
  <g id="scale" transform="translate(-21.461 -109)">
    <rect id="Rectangle_273" data-name="Rectangle 273" width="19" height="19" transform="translate(21.961 109)" fill="rgba(255,255,255,0)"/>
    <g id="Icon_ionic-ios-apps" data-name="Icon ionic-ios-apps" transform="translate(21.962 110)">
      <path id="Path_225" data-name="Path 225" d="M21.933,7.959l-7.024-3.2a3.8,3.8,0,0,0-2.769,0l-7.019,3.2c-.827.376-.827.992,0,1.368L12.079,12.5a4,4,0,0,0,2.9,0l6.958-3.173C22.76,8.951,22.76,8.335,21.933,7.959Z" transform="translate(-4.496 -4.496)" fill="none" stroke="#fc326f" strokeWidth="1"/>
      <g id="Group_136" data-name="Group 136" transform="translate(-0.001 7.608)">
        <path id="Path_226" data-name="Path 226" d="M12.079,25.288,7.387,23.149a.763.763,0,0,0-.625,0L5.121,23.9c-.827.376-.827.992,0,1.368l6.958,3.173a4,4,0,0,0,2.9,0l6.958-3.173c.827-.376.827-.992,0-1.368l-1.641-.748a.763.763,0,0,0-.625,0l-4.692,2.139A4,4,0,0,1,12.079,25.288Z" transform="translate(-4.495 -18.263)" fill="none" stroke="#fc326f" strokeWidth="1"/>
        <path id="Path_227" data-name="Path 227" d="M21.93,16.619l-1.49-.677a.752.752,0,0,0-.621,0l-5.078,2.3a4.151,4.151,0,0,1-2.44,0l-5.078-2.3a.752.752,0,0,0-.621,0l-1.49.677c-.827.376-.827.992,0,1.368l6.958,3.173a4,4,0,0,0,2.9,0l6.958-3.173C22.758,17.611,22.758,16.995,21.93,16.619Z" transform="translate(-4.493 -15.875)" fill="none" stroke="#fc326f" strokeWidth="1"/>
      </g>
    </g>
  </g>
</svg>
