<svg xmlns="http://www.w3.org/2000/svg" xmlns:xlink="http://www.w3.org/1999/xlink" width="108" height="109" viewBox="0 0 108 109">
  <defs>
    <filter id="uiSkill" x="0" y="0" width="108" height="109" filterUnits="userSpaceOnUse">
      <feOffset dy="3" input="SourceAlpha"/>
      <feGaussianBlur stdDeviation="3" result="blur"/>
      <feFlood flood-opacity="0.161"/>
      <feComposite operator="in" in2="blur"/>
      <feComposite in="SourceGraphic"/>
    </filter>
  </defs>
  <g id="uiSkill-2" data-name="uiSkill" transform="translate(37.998 33.08)">
    <g transform="matrix(1, 0, 0, 1, -38, -33.08)" filter="url(#uiSkill)">
      <rect id="uiSkill-3" data-name="uiSkill" width="90" height="91" rx="45" transform="translate(9 6)" fill="#6c63ff"/>
    </g>
    <g id="Group_92" data-name="Group 92" transform="translate(14.012 0)">
      <path id="Path_212" data-name="Path 212" d="M31.1,6.077,14.254,22.925a.656.656,0,0,0-.192.467V25.6a.66.66,0,0,0,.659.659h2.194a.675.675,0,0,0,.475-.192L34.247,9.222a.659.659,0,0,0,0-.934l-2.21-2.21A.659.659,0,0,0,31.1,6.077Z" transform="translate(-14.062 -2.908)" fill="#f6f6f6"/>
      <path id="Path_213" data-name="Path 213" d="M34.1,4.96l-1.2-1.2-.017-.017a1.475,1.475,0,0,0-.959-.367,1.445,1.445,0,0,0-.968.375L30.01,4.7a.338.338,0,0,0,0,.467l.867.867,1.81,1.81a.332.332,0,0,0,.475,0l.942-.942a1.422,1.422,0,0,0,.367-.968A1.509,1.509,0,0,0,34.1,4.96Z" transform="translate(-11.11 -3.375)" fill="#f6f6f6"/>
    </g>
    <path id="Path_214" data-name="Path 214" d="M20.432,26.918a1.339,1.339,0,0,1-.942.392H16.037A1.338,1.338,0,0,1,14.7,25.976V22.514a1.339,1.339,0,0,1,.392-.942l.067-.067L27.472,9.195a.333.333,0,0,0-.234-.567H7.146a4.9,4.9,0,0,0-4.9,4.9V32.206a4.9,4.9,0,0,0,4.9,4.9H28.5a4.9,4.9,0,0,0,4.9-4.9V14.774a.331.331,0,0,0-.567-.234L20.5,26.851Z" transform="translate(-2.25 -2.397)" fill="#f6f6f6"/>
  </g>
</svg>
