<svg xmlns="http://www.w3.org/2000/svg" width="19" height="19" viewBox="0 0 19 19">
  <g id="userTesting" transform="translate(-23.96 -166)">
    <path id="Icon_awesome-user-check" data-name="Icon awesome-user-check" d="M5.585,6.382A3.191,3.191,0,1,0,2.393,3.191,3.191,3.191,0,0,0,5.585,6.382Zm2.234.8H7.4a4.34,4.34,0,0,1-3.635,0H3.351A3.352,3.352,0,0,0,0,10.531v1.037a1.2,1.2,0,0,0,1.2,1.2H9.973a1.2,1.2,0,0,0,1.2-1.2V10.531A3.352,3.352,0,0,0,7.819,7.18Zm8.053-3.2-.693-.7a.3.3,0,0,0-.419,0L12.147,5.869,11.012,4.727a.3.3,0,0,0-.419,0l-.7.7a.3.3,0,0,0,0,.419l2.037,2.052a.3.3,0,0,0,.419,0l3.523-3.5A.3.3,0,0,0,15.871,3.979Z" transform="translate(25.461 169.5)" fill="none" stroke="#6ed681" stroke-width="1"/>
    <rect id="Rectangle_274" data-name="Rectangle 274" width="19" height="19" transform="translate(23.96 166)" fill="rgba(255,255,255,0)"/>
  </g>
</svg>
