<svg xmlns="http://www.w3.org/2000/svg" width="19" height="19" viewBox="0 0 19 19">
  <g id="wireframe" transform="translate(0.846 2)">
    <g id="Rectangle_239" data-name="Rectangle 239" transform="translate(-0.846 -0.999)" fill="none" stroke="#6ed681" stroke-width="1">
      <rect width="19" height="16" rx="2" stroke="none"/>
      <rect x="0.5" y="0.5" width="18" height="15" rx="1.5" fill="none"/>
    </g>
    <g id="Rectangle_240" data-name="Rectangle 240" transform="translate(15.154 1.001)" fill="none" stroke="#6ed681" stroke-width="1">
      <rect width="1" height="1" rx="0.5" stroke="none"/>
      <rect x="0.5" y="0.5" fill="none"/>
    </g>
    <g id="Rectangle_241" data-name="Rectangle 241" transform="translate(5.154 3.001)" fill="none" stroke="#6ed681" stroke-width="1">
      <path d="M1,0H12a1,1,0,0,1,1,1v9a2,2,0,0,1-2,2H1a1,1,0,0,1-1-1V1A1,1,0,0,1,1,0Z" stroke="none"/>
      <path d="M1,.5H12a.5.5,0,0,1,.5.5v9A1.5,1.5,0,0,1,11,11.5H1A.5.5,0,0,1,.5,11V1A.5.5,0,0,1,1,.5Z" fill="none"/>
    </g>
    <ellipse id="Ellipse_78" data-name="Ellipse 78" cy="0.5" ry="0.5" transform="translate(15.154 0.001)" fill="none"/>
    <ellipse id="Ellipse_79" data-name="Ellipse 79" cy="0.5" ry="0.5" transform="translate(15.154 0.001)" fill="none"/>
    <circle id="Ellipse_80" data-name="Ellipse 80" cx="0.5" cy="0.5" r="0.5" transform="translate(16.154 0.001)" fill="none"/>
    <g id="Rectangle_242" data-name="Rectangle 242" transform="translate(1.154 5.001)" fill="none" stroke="#6ed681" stroke-width="1">
      <rect width="3" height="1" stroke="none"/>
      <rect x="0.5" y="0.5" width="2" fill="none"/>
    </g>
    <g id="Rectangle_245" data-name="Rectangle 245" transform="translate(7.154 5.001)" fill="none" stroke="#6ed681" stroke-width="1">
      <rect width="9" height="8" stroke="none"/>
      <rect x="0.5" y="0.5" width="8" height="7" fill="none"/>
    </g>
    <g id="Ellipse_81" data-name="Ellipse 81" transform="translate(14.154 6.001)" fill="none" stroke="#6ed681" stroke-width="1">
      <circle cx="0.5" cy="0.5" r="0.5" stroke="none"/>
      <circle cx="0.5" cy="0.5" fill="none"/>
    </g>
    <g id="Rectangle_243" data-name="Rectangle 243" transform="translate(1.154 7.001)" fill="none" stroke="#6ed681" stroke-width="1">
      <rect width="3" height="1" stroke="none"/>
      <rect x="0.5" y="0.5" width="2" fill="none"/>
    </g>
    <g id="Rectangle_244" data-name="Rectangle 244" transform="translate(1.154 9.001)" fill="none" stroke="#6ed681" stroke-width="1">
      <rect width="3" height="2" stroke="none"/>
      <rect x="0.5" y="0.5" width="2" height="1" fill="none"/>
    </g>
    <path id="Path_219" data-name="Path 219" d="M5563.609,1487.082l1.179,2.626,1.416-1.614,2.576,3.7h-6.729v-2.848Z" transform="translate(-5554.125 -1479.454)" fill="none" stroke="#6ed681" stroke-width="1"/>
    <rect id="Rectangle_275" data-name="Rectangle 275" width="19" height="19" transform="translate(-0.846 -2)" fill="rgba(255,255,255,0)"/>
  </g>
</svg>
