<svg xmlns="http://www.w3.org/2000/svg" width="19" height="19" viewBox="0 0 19 19">
  <g id="wordpress" transform="translate(85.039 -111)">
    <rect id="Rectangle_273" data-name="Rectangle 273" width="19" height="19" transform="translate(-85.039 111)" fill="rgba(255,255,255,0)"/>
    <path id="Icon_awesome-wordpress-simple" data-name="Icon awesome-wordpress-simple" d="M8.39.563A7.828,7.828,0,1,0,16.218,8.39,7.837,7.837,0,0,0,8.39.563ZM1.352,8.39a6.99,6.99,0,0,1,.609-2.863l3.358,9.2A7.044,7.044,0,0,1,1.352,8.39ZM8.39,15.429A7.011,7.011,0,0,1,6.4,15.142L8.513,9.006l2.162,5.928a.951.951,0,0,0,.051.1A7.046,7.046,0,0,1,8.39,15.429ZM9.359,5.092c.423-.022.8-.066.8-.066a.291.291,0,0,0-.044-.581s-1.139.088-1.875.088c-.691,0-1.853-.088-1.853-.088a.291.291,0,0,0-.044.581s.36.044.739.066l1.1,3-1.54,4.618L4.079,5.092c.423-.022.8-.066.8-.066a.291.291,0,0,0-.044-.581s-1.139.088-1.875.088c-.133,0-.287,0-.455-.009A7.039,7.039,0,0,1,13.144,3.2a.892.892,0,0,0-.092-.006,1.218,1.218,0,0,0-1.18,1.25,3.3,3.3,0,0,0,.691,1.651,3.694,3.694,0,0,1,.581,1.941,8.451,8.451,0,0,1-.537,2.276l-.7,2.345L9.359,5.092Zm2.569,9.381,2.149-6.215a6.657,6.657,0,0,0,.537-2.522,5.18,5.18,0,0,0-.047-.723,7.039,7.039,0,0,1-2.639,9.46Z" transform="translate(-83.655 112.299)" fill="#0dc482"/>
  </g>
</svg>
