<svg width="20" height="23" viewBox="0 0 20 23" fill="none" xmlns="http://www.w3.org/2000/svg">
<path fill-rule="evenodd" clip-rule="evenodd" d="M19.9999 5.10617C19.9993 4.43451 19.8502 3.76961 19.5612 3.14989C19.2722 2.53017 18.849 1.96792 18.316 1.49564C17.2339 0.536534 15.7729 -0.000968322 14.2508 1.3096e-06H1.45806C0.653115 1.3096e-06 0.000502472 0.579708 0.000502472 1.29466V5.22695C0.000502472 5.94188 0.653092 6.52146 1.45806 6.52146H12.6548C12.6548 6.52146 12.6775 12.7365 12.6879 15.5993C12.6908 16.3817 11.9831 17.02 11.1022 17.0298C8.61442 17.0572 3.84125 17.1097 1.4541 17.136C0.658654 17.1449 0.0180394 17.7184 0.0145859 18.4249C0.0102353 19.3188 0.00442698 20.5106 9.10516e-06 21.4105C-0.000668917 21.5812 0.0365266 21.7504 0.109434 21.9082C0.182342 22.0659 0.289509 22.2091 0.424708 22.3295C0.699277 22.5738 1.07063 22.7109 1.45762 22.7106H15.2613C17.8398 22.7106 19.933 20.8592 19.9438 18.5691C19.9662 13.7726 20 6.5216 20 6.5216L19.9999 5.10617Z" fill="#ED7171"/>
<path fill-rule="evenodd" clip-rule="evenodd" d="M20 4.914C20 2.20009 17.49 3.47622e-07 14.3938 3.47622e-07H1.4576C1.07171 -0.000249544 0.701305 0.134237 0.426931 0.374218C0.291807 0.492389 0.184504 0.633072 0.111225 0.788136C0.037945 0.943201 0.000141854 1.10957 0 1.27763V5.31573C0.000135467 5.4838 0.0379333 5.65018 0.111209 5.80525C0.184485 5.96032 0.291785 6.10101 0.426909 6.21919C0.701298 6.45915 1.07169 6.59363 1.45758 6.5934H20V4.914Z" fill="#FCFCFC" fill-opacity="0.37"/>
</svg>
